<svg width="256" height="256" viewBox="0 0 148 133" fill="none" xmlns="http://www.w3.org/2000/svg">
    <path fill-rule="evenodd" clip-rule="evenodd" d="M124.454 6.62178C113.637 -0.117094 103.154 -1.09374 93.6301 0.950708C84.4988 2.90401 75.7085 7.79376 68.2503 13.569C66.3198 12.3254 64.4536 11.0818 62.6196 9.87727C60.9465 13.543 59.2283 17.2933 57.4715 21.0892C55.6955 24.9958 53.8894 28.9697 52.0532 33.0108C56.9374 31.4221 61.8924 29.8009 66.9568 28.1666L82.7098 23.062L75.464 18.3155C82.1371 13.5039 89.4795 9.42802 97.3432 7.1101C106.166 4.51183 115.514 4.34325 124.422 6.62178H124.454Z" fill="#F15E4B"/>
    <path fill-rule="evenodd" clip-rule="evenodd" d="M141.874 67.1803C150.272 49.0146 149.287 37.0995 143.495 29.7356C138.109 22.886 128.598 19.9235 118.56 19.3831C119.969 16.1927 121.372 13.0414 122.723 9.9552L106.101 17.7684L90.0137 25.3407C92.7936 27.9928 95.6722 30.7405 98.6495 33.5836L108.302 42.8097C110.018 38.9031 111.698 35.0529 113.341 31.2592C121.571 32.4311 129.21 35.1006 134.576 40.3355C140.246 45.9024 143.399 54.4253 141.893 67.2259L141.874 67.1803Z" fill="#8A5DA7"/>
    <path fill-rule="evenodd" clip-rule="evenodd" d="M70.1744 133.007C92.1887 128.879 106.706 119.066 114.937 107.262C118.473 102.245 120.953 96.5465 122.223 90.5197C123.492 84.4929 123.525 78.2664 122.318 72.2264C127.369 70.527 132.446 68.7951 137.601 67.0176C131.874 63.8663 126.387 60.8278 121.14 57.9022C116.129 55.1676 111.307 52.5285 106.674 49.9849C103.958 55.2761 101.187 60.6868 98.36 66.2168C95.4899 71.8596 92.5598 77.6305 89.5697 83.5295C94.6147 81.7845 99.7306 80.0266 104.924 78.2035C105.691 88.1277 103.582 98.0629 98.8555 106.793C93.4886 116.664 84.3315 125.883 70.1744 133V133.007Z" fill="#4A8DA0"/>
    <path fill-rule="evenodd" clip-rule="evenodd" d="M5.04504 106.663C10.7208 119.125 19.7105 124.503 29.9745 124.79C40.7854 125.089 52.3942 119.737 62.5681 112.087C65.2965 115.099 68.1022 118.2 70.9851 121.391C73.1859 114.912 75.361 108.61 77.4588 102.47C79.5223 96.5319 81.53 90.7306 83.482 85.066C76.8732 86.5766 70.3995 88.022 64.0739 89.461L45.8562 93.6085C48.3337 96.317 50.8691 99.1233 53.4946 102.001C45.1805 107.724 36.4353 111.989 27.8509 113.141C19.5561 114.281 11.6989 112.49 5.04504 106.63V106.663Z" fill="#26A75A"/>
    <path fill-rule="evenodd" clip-rule="evenodd" d="M11.2292 47.042C2.47111 59.9663 -0.579105 69.6221 0.0837068 76.68C0.791564 84.1481 5.70795 88.7709 12.4648 91.0953C10.4313 94.9563 8.33989 98.8629 6.22919 102.815C11.3515 100.484 16.536 98.1163 21.7827 95.7116C27.0852 93.3221 32.4392 90.8609 37.8704 88.3737C35.6632 84.2979 33.5589 80.3847 31.4997 76.6149C29.5434 72.9861 27.6494 69.4832 25.8175 66.1061C23.7755 69.9346 21.6991 73.8195 19.5884 77.7608C14.1829 75.7424 10.0259 72.5195 8.34632 67.3953C6.75043 62.5316 7.36176 55.9295 11.2164 47.0289L11.2292 47.042Z" fill="#FEC827"/>
    <path fill-rule="evenodd" clip-rule="evenodd" d="M65.5154 4.40796C51.429 8.50337 42.0081 14.0377 35.7146 20.0994C30.0231 25.4202 26.0417 32.3475 24.286 39.984L14.7234 43.1809C16.787 45.4077 18.917 47.7017 21.1135 50.063C23.3958 52.5112 25.7553 55.0439 28.192 57.6613C31.5125 53.2469 34.788 48.9062 38.0184 44.6394C41.1909 40.4723 44.3119 36.3379 47.3685 32.2685C43.5761 33.5316 39.8202 34.7752 36.1007 35.9993C37.6099 29.8165 40.5725 24.0939 44.7366 19.3181C49.2411 14.1093 55.8371 9.04378 65.5154 4.41447V4.40796Z" fill="#F58120"/>
</svg>
