<svg viewBox="0 0 100 100" xmlns="http://www.w3.org/2000/svg">
  <path d="M47.333 2.447C44.804 2.654 41.449 3.238 37.838 4.099C36.827 4.34 34.775 5.042 32.667 5.869C31.213 6.44 27.478 8.258 26.784 8.733C26.436 8.972 26.09 9.167 26.015 9.167C25.624 9.167 20.55 12.838 19.003 14.24C16.084 16.885 12.607 20.793 11.216 22.991C10.894 23.5 10.494 24.067 10.329 24.25C10.163 24.433 9.804 25.016 9.531 25.545C9.258 26.075 8.953 26.606 8.853 26.726C8.267 27.432 6.137 32.182 5.232 34.8C2.837 41.731 1.961 51.32 3.142 57.667C3.321 58.629 3.592 60.129 3.743 61C3.963 62.269 5.332 66.789 5.99 68.417C6.44 69.53 8.141 73.073 8.631 73.917C8.951 74.467 9.401 75.254 9.632 75.667C9.863 76.079 10.364 76.829 10.747 77.333C11.129 77.837 11.486 78.362 11.54 78.5C12.001 79.669 18.426 86.557 20.168 87.75C20.57 88.025 21.086 88.422 21.315 88.632C21.842 89.116 25.549 91.634 25.95 91.78C26.115 91.84 26.558 92.098 26.935 92.353C27.956 93.045 31.932 94.904 33.876 95.6C42.948 98.843 51.123 99.447 60.583 97.57C62.142 97.261 63.979 96.823 64.667 96.597C67.249 95.747 68.898 95.147 69.81 94.724C70.327 94.484 71.275 94.046 71.917 93.749C72.558 93.453 73.496 92.965 74 92.665C74.504 92.365 75.254 91.933 75.667 91.706C76.079 91.478 76.792 91.015 77.25 90.676C77.708 90.338 78.196 90.018 78.333 89.965C80.371 89.185 88.473 81.008 90.417 77.771C90.6 77.466 91.045 76.774 91.405 76.233C92.525 74.553 93.455 72.785 95.077 69.25C98.036 62.806 99.454 52.414 98.443 44.583C98.289 43.392 98.119 42.079 98.065 41.667C97.643 38.416 95.09 31.158 93.2 27.835C92.861 27.238 92.533 26.629 92.473 26.482C92.412 26.335 91.999 25.666 91.556 24.996C91.113 24.327 90.675 23.66 90.583 23.516C88.06 19.536 82.404 13.785 78.333 11.062C77.921 10.786 77.246 10.33 76.833 10.05C75.738 9.306 72.984 7.716 72.417 7.5C72.148 7.398 71.25 6.985 70.422 6.582C69.594 6.179 68.467 5.701 67.917 5.52C67.367 5.339 66.242 4.954 65.417 4.665C60.715 3.018 52.563 2.018 47.333 2.447M38.562 30.863C39.399 31.337 40.683 32.076 41.417 32.504C42.15 32.931 43.087 33.468 43.5 33.695C43.913 33.923 45.337 34.731 46.667 35.492C47.996 36.252 50.658 37.774 52.583 38.875C54.508 39.976 56.833 41.307 57.75 41.835C58.667 42.362 61.104 43.749 63.167 44.916C65.229 46.084 67.254 47.243 67.667 47.492C68.079 47.741 69.467 48.533 70.75 49.251C73.449 50.762 73.833 51.063 73.833 51.664C73.833 52.38 73.934 52.317 60.167 60.158C52.879 64.309 46.167 68.14 45.25 68.673C36.899 73.527 36.862 73.544 36.241 72.922L35.83 72.511 35.873 51.574L35.917 30.637 36.31 30.319C36.844 29.886 36.837 29.884 38.562 30.863" fill="#3c8cec" fill-rule="evenodd"/>
  <path d="M36.482 30.394L36.083 30.593 36.083 51.665 36.083 72.737 36.52 72.982C36.947 73.222 37.352 73.002 54.853 63.006C75.077 51.455 73.667 52.304 73.667 51.676C73.667 51.055 75.456 52.132 55.327 40.634C35.302 29.195 37.018 30.127 36.482 30.394" fill="#fbfbfb" fill-rule="evenodd"/>
</svg>
