<?xml version="1.0" encoding="UTF-8" standalone="no"?>
<svg
   xmlns:dc="http://purl.org/dc/elements/1.1/"
   xmlns:cc="http://creativecommons.org/ns#"
   xmlns:rdf="http://www.w3.org/1999/02/22-rdf-syntax-ns#"
   xmlns:svg="http://www.w3.org/2000/svg"
   xmlns="http://www.w3.org/2000/svg"
   xmlns:sodipodi="http://sodipodi.sourceforge.net/DTD/sodipodi-0.dtd"
   xmlns:inkscape="http://www.inkscape.org/namespaces/inkscape"
   version="1.1"
   x="0px"
   y="0px"
   viewBox="0 0 1596.13 439.77001"
   xml:space="preserve"
   id="svg1208"
   sodipodi:docname="Billie Jean King Cup Logo.svg"
   width="1596.13"
   height="439.76999"
   inkscape:version="1.0.1 (3bc2e813f5, 2020-09-07)"><metadata
   id="metadata1214"><rdf:RDF><cc:Work
       rdf:about=""><dc:format>image/svg+xml</dc:format><dc:type
         rdf:resource="http://purl.org/dc/dcmitype/StillImage" /><dc:title></dc:title></cc:Work></rdf:RDF></metadata><defs
   id="defs1212">
	

		
		
		
		
		
	
			
		
				
				
			</defs><sodipodi:namedview
   pagecolor="#ffffff"
   bordercolor="#666666"
   borderopacity="1"
   objecttolerance="10"
   gridtolerance="10"
   guidetolerance="10"
   inkscape:pageopacity="0"
   inkscape:pageshadow="2"
   inkscape:window-width="3840"
   inkscape:window-height="2107"
   id="namedview1210"
   showgrid="false"
   inkscape:zoom="0.27683231"
   inkscape:cx="2992.768"
   inkscape:cy="-93.13809"
   inkscape:window-x="3832"
   inkscape:window-y="-8"
   inkscape:window-maximized="1"
   inkscape:current-layer="svg1208" />
<style
   type="text/css"
   id="style833">
	.st0{display:none;}
	.st1{fill:#00303C;}
	.st2{fill:url(#SVGID_1_);}
	.st3{fill:url(#SVGID_2_);}
	.st4{fill:url(#SVGID_3_);}
	.st5{fill:url(#SVGID_4_);}
	.st6{fill:url(#SVGID_5_);}
	.st7{fill:url(#SVGID_6_);}
	.st8{fill:#FFFFFF;}
	.st9{display:inline;fill:#7C7C7B;}
	.st10{display:inline;}
	.st11{fill:#EA5B0C;}
	.st12{fill:#95C11F;}
	.st13{fill:#009FE3;}
	.st14{fill:#FDC300;}
</style>
<g
   id="Background"
   class="st0"
   transform="translate(0,-675.66988)">
</g>
<g
   id="g986"
   transform="translate(-201.93,-201.91994)">
					<path
   class="st1"
   d="m 369.48,342.19 c 0,38.75 -29.2,61.67 -78.59,61.67 H 201.93 V 201.93 h 95.51 c 36.57,0 57.85,15.83 57.85,42.57 0,25.1 -24.02,40.11 -64.67,40.11 v 0.55 h 4.64 c 46.66,0 74.22,21.01 74.22,57.03 M 281.61,238.22 h -32.2 v 46.39 h 32.2 c 15.28,0 24.56,-8.73 24.56,-23.19 0,-14.74 -9.28,-23.2 -24.56,-23.2 m 38.76,103.97 c 0,-16.1 -10.37,-25.38 -27.29,-25.38 h -43.66 v 50.76 h 43.66 c 16.91,0 27.29,-9.55 27.29,-25.38"
   id="path952" />
					<rect
   x="392.54001"
   y="201.92999"
   class="st1"
   width="47.48"
   height="201.92999"
   id="rect954" />
					<rect
   x="775.26001"
   y="201.92999"
   class="st1"
   width="47.48"
   height="201.92999"
   id="rect956" />
					<path
   class="st1"
   d="m 1007.73,367.57 v 36.29 H 856.28 V 282.43 h 61.67 v -0.55 c -39.84,0 -63.86,-14.46 -63.86,-39.3 0,-25.65 22.92,-40.66 61.4,-40.66 h 89.23 v 36.29 h -72.59 c -18.29,0 -28.93,8.19 -28.93,22.38 0,13.91 10.64,21.83 28.93,21.83 h 63.03 v 36.29 h -91.42 v 48.85 h 103.99 z"
   id="path958" />
					<path
   class="st1"
   d="M 1168.44,341.37 V 201.93 h 47.48 v 136.99 c 0,42.57 -26.2,67.68 -70.13,67.68 -40.11,0 -65.22,-28.38 -67.67,-75.86 h 43.93 c 1.91,24.29 11.19,38.75 25.38,38.75 13.37,-0.01 21.01,-10.65 21.01,-28.12"
   id="path960" />
					<path
   class="st1"
   d="m 1399.43,367.57 v 36.29 H 1247.98 V 282.43 h 61.67 v -0.55 c -39.84,0 -63.85,-14.46 -63.85,-39.3 0,-25.65 22.92,-40.66 61.4,-40.66 h 89.23 v 36.29 h -72.58 c -18.29,0 -28.93,8.19 -28.93,22.38 0,13.91 10.64,21.83 28.93,21.83 h 63.04 v 36.29 h -91.42 v 48.85 h 103.96 z"
   id="path962" />
					<path
   class="st1"
   d="m 1549.12,356.93 h -78.59 l -12.28,46.93 h -47.21 l 58.67,-201.93 h 83.23 l 58.13,201.93 h -49.94 z m -9.28,-36.02 -29.74,-115.16 h -0.55 l -29.75,115.16 z"
   id="path964" />
					<polygon
   class="st1"
   points="1670.9,205.75 1670.35,205.75 1672.54,403.86 1627.51,403.86 1627.51,201.93 1704.46,201.93 1754.95,400.04 1755.49,400.04 1753.31,201.93 1798.06,201.93 1798.06,403.86 1721.38,403.86 "
   id="polygon966" />
					<path
   class="st1"
   d="m 491.37,638.95 -49.66,-98.51 -38.48,47.21 v 51.3 H 357.66 V 437.02 h 45.57 v 88.14 h 0.55 l 76.95,-88.14 h 53.21 l -89.23,102.33 c 23.47,0 54.03,11.74 68.22,40.93 l 31.66,58.67 z"
   id="path968" />
					<rect
   x="558.67999"
   y="437.01999"
   class="st1"
   width="47.48"
   height="201.92999"
   id="rect970" />
					<polygon
   class="st1"
   points="683.25,440.84 682.7,440.84 684.89,638.96 639.86,638.96 639.86,437.02 716.81,437.02 767.3,635.13 767.84,635.13 765.66,437.02 810.41,437.02 810.41,638.96 733.73,638.96 "
   id="polygon972" />
					<path
   class="st1"
   d="m 1023.69,530.89 v 108.06 h -44.48 v -71.22 h -0.55 c 0,46.39 -25.38,73.95 -68.22,73.95 -46.39,0 -74.77,-38.48 -74.77,-103.7 0,-65.22 36.29,-103.7 97.69,-103.7 50.48,0 83.5,29.47 88.69,78.86 h -45.03 c -3.82,-25.92 -20.19,-41.75 -43.66,-41.75 -30.56,0 -48.57,24.83 -48.57,66.59 0,41.75 17.74,66.58 47.76,66.58 26.47,0 43.12,-16.1 45.84,-43.11 h -47.21 v -30.56 z"
   id="path974" />
					<path
   class="st1"
   d="m 1200.23,641.68 c -61.13,0 -97.15,-38.48 -97.15,-103.7 0,-65.22 36.02,-103.7 97.15,-103.7 51.03,0 84.59,30.56 90.33,81.87 h -45.03 c -4.37,-27.83 -21.29,-44.75 -45.3,-44.75 -30.29,0 -48.3,24.83 -48.3,66.59 0,41.75 18.01,66.58 48.3,66.58 24.56,0 40.93,-16.92 45.3,-45.3 h 45.03 c -5.74,51.58 -39.3,82.41 -90.33,82.41"
   id="path976" />
					<path
   class="st1"
   d="m 1432.09,437.02 h 45.03 v 129.35 c 0,47.48 -30.84,75.32 -83.23,75.32 -51.85,0 -82.68,-27.84 -82.68,-75.32 V 437.02 h 47.21 v 131.53 c 0,22.65 13.64,36.02 36.84,36.02 23.19,0 36.84,-13.37 36.84,-36.02 V 437.02 Z"
   id="path978" />
					<path
   class="st1"
   d="m 606.6,366.36 v 37.36 H 473.52 V 201.93 h 47.45 v 121.35 c 0,25.64 -17.45,41.45 -46.08,42.54 v 0.55 H 606.6 Z"
   id="path980" />
					<path
   class="st1"
   d="m 757.28,366.36 v 37.36 H 624.21 V 201.93 h 47.45 v 121.35 c 0,25.64 -17.45,41.45 -46.08,42.54 v 0.55 h 131.7 z"
   id="path982" />
					<path
   class="st1"
   d="m 1667.01,503.94 c 0,39.27 -24.27,62.72 -65.72,62.72 -24.82,0 -41.18,-13.09 -43.36,-34.9 h -0.54 v 106.89 h -47.45 V 436.86 h 78.54 c 49.35,0 78.53,25.08 78.53,67.08 m -48.82,-2.18 c 0,-18 -10.36,-28.63 -27.54,-28.63 h -33.27 v 57.26 h 33.27 c 17.18,0 27.54,-10.64 27.54,-28.63"
   id="path984" />
				</g><g
   class="st0"
   id="g1004"
   transform="translate(0,-675.66988)">
			<path
   class="st9"
   d="m 2881.77,468.02 v 179.39 h -31.15 V 506.8 h -0.5 l -55.67,140.61 h -20.64 L 2716.77,506.8 h -0.38 v 140.61 h -28.77 V 468.02 h 44.66 L 2783.82,601 h 0.75 l 54.42,-132.98 z m 26.05,13.64 c 0,-5 1.81,-9.2 5.44,-12.57 3.63,-3.38 7.94,-5.07 12.95,-5.07 5.34,0 9.76,1.73 13.26,5.19 3.5,3.46 5.26,7.61 5.26,12.45 0,4.92 -1.79,9.05 -5.38,12.38 -3.59,3.34 -7.97,5 -13.14,5 -5.17,0 -9.53,-1.69 -13.07,-5.06 -3.55,-3.38 -5.32,-7.48 -5.32,-12.32 z m 33.4,37.15 v 128.6 h -30.27 v -128.6 z m 91.82,106.58 c 4.5,0 9.46,-1.04 14.88,-3.13 5.42,-2.09 10.42,-4.84 15.01,-8.26 v 28.14 c -4.84,2.75 -10.32,4.84 -16.45,6.25 -6.13,1.42 -12.86,2.13 -20.2,2.13 -18.93,0 -34.32,-5.98 -46.16,-17.95 -11.84,-11.97 -17.76,-27.25 -17.76,-45.85 0,-20.68 6.05,-37.72 18.14,-51.1 12.09,-13.38 29.23,-20.08 51.41,-20.08 5.67,0 11.4,0.73 17.2,2.19 5.8,1.46 10.4,3.15 13.82,5.06 v 29.02 c -4.67,-3.42 -9.44,-6.07 -14.32,-7.94 -4.88,-1.88 -9.86,-2.81 -14.95,-2.81 -11.93,0 -21.56,3.88 -28.9,11.63 -7.34,7.75 -11.01,18.22 -11.01,31.4 0,13.01 3.52,23.14 10.57,30.4 7.06,7.28 16.63,10.9 28.72,10.9 z m 116.09,-108.7 c 2.42,0 4.59,0.17 6.51,0.5 1.92,0.33 3.54,0.75 4.88,1.25 v 30.65 c -1.59,-1.17 -3.9,-2.27 -6.94,-3.31 -3.05,-1.04 -6.74,-1.56 -11.07,-1.56 -7.42,0 -13.7,3.13 -18.83,9.38 -5.13,6.25 -7.69,15.89 -7.69,28.9 v 64.93 h -30.27 v -128.6 h 30.27 v 20.26 h 0.5 c 2.75,-7.01 6.92,-12.49 12.51,-16.45 5.57,-3.97 12.29,-5.95 20.13,-5.95 z m 13.02,68.3 c 0,-21.27 6,-38.11 18.01,-50.54 12.01,-12.43 28.69,-18.64 50.04,-18.64 20.1,0 35.8,5.99 47.1,17.95 11.3,11.97 16.95,28.13 16.95,48.47 0,20.85 -6.01,37.44 -18.01,49.79 -12.01,12.34 -28.36,18.51 -49.04,18.51 -19.93,0 -35.76,-5.86 -47.47,-17.57 -11.72,-11.71 -17.58,-27.71 -17.58,-47.97 z m 31.52,-1 c 0,13.43 3.04,23.68 9.13,30.77 6.08,7.09 14.8,10.63 26.14,10.63 11.01,0 19.39,-3.54 25.14,-10.63 5.75,-7.09 8.63,-17.6 8.63,-31.53 0,-13.84 -2.98,-24.29 -8.94,-31.34 -5.96,-7.05 -14.32,-10.57 -25.08,-10.57 -11.09,0 -19.7,3.69 -25.83,11.07 -6.12,7.39 -9.19,17.92 -9.19,31.6 z m 145.61,-31.4 c 0,4.34 1.38,7.73 4.13,10.2 2.75,2.46 8.84,5.56 18.26,9.32 12.09,4.84 20.58,10.28 25.46,16.33 4.88,6.05 7.32,13.36 7.32,21.95 0,12.09 -4.65,21.81 -13.95,29.15 -9.3,7.34 -21.87,11.01 -37.72,11.01 -5.34,0 -11.24,-0.64 -17.7,-1.94 -6.46,-1.29 -11.95,-2.94 -16.45,-4.94 V 613.9 c 5.51,3.84 11.43,6.88 17.76,9.13 6.34,2.25 12.09,3.38 17.26,3.38 6.84,0 11.89,-0.96 15.14,-2.88 3.25,-1.92 4.88,-5.13 4.88,-9.63 0,-4.17 -1.69,-7.69 -5.06,-10.57 -3.38,-2.88 -9.78,-6.19 -19.2,-9.95 -11.17,-4.67 -19.1,-9.92 -23.77,-15.76 -4.67,-5.84 -7.01,-13.26 -7.01,-22.27 0,-11.59 4.61,-21.12 13.82,-28.58 9.21,-7.46 21.16,-11.19 35.84,-11.19 4.5,0 9.55,0.5 15.14,1.5 5.59,1 10.26,2.3 14.01,3.88 v 28.77 c -4,-2.67 -8.68,-4.96 -14.01,-6.88 -5.34,-1.92 -10.63,-2.88 -15.89,-2.88 -5.75,0 -10.24,1.13 -13.45,3.38 -3.2,2.23 -4.81,5.32 -4.81,9.24 z m 68.17,32.4 c 0,-21.27 6,-38.11 18.01,-50.54 12.01,-12.43 28.69,-18.64 50.04,-18.64 20.1,0 35.8,5.99 47.1,17.95 11.3,11.97 16.95,28.13 16.95,48.47 0,20.85 -6.01,37.44 -18.01,49.79 -12.01,12.34 -28.36,18.51 -49.04,18.51 -19.93,0 -35.76,-5.86 -47.47,-17.57 -11.72,-11.71 -17.58,-27.71 -17.58,-47.97 z m 31.53,-1 c 0,13.43 3.04,23.68 9.13,30.77 6.08,7.09 14.8,10.63 26.14,10.63 11.01,0 19.39,-3.54 25.14,-10.63 5.75,-7.09 8.63,-17.6 8.63,-31.53 0,-13.84 -2.98,-24.29 -8.94,-31.34 -5.96,-7.05 -14.32,-10.57 -25.08,-10.57 -11.09,0 -19.7,3.69 -25.83,11.07 -6.13,7.39 -9.19,17.92 -9.19,31.6 z m 201.01,-40.41 h -45.09 v 103.83 h -30.65 V 543.58 h -21.52 v -24.77 h 21.52 v -17.89 c 0,-13.51 4.4,-24.58 13.2,-33.21 8.8,-8.63 20.08,-12.95 33.84,-12.95 3.67,0 6.92,0.19 9.76,0.56 2.83,0.38 5.34,0.94 7.51,1.69 v 26.15 c -1,-0.58 -2.75,-1.29 -5.26,-2.13 -2.5,-0.83 -5.38,-1.25 -8.63,-1.25 -6.34,0 -11.22,1.98 -14.64,5.94 -3.42,3.96 -5.13,9.82 -5.13,17.57 v 15.51 h 45.09 v -28.9 l 30.4,-9.26 v 38.16 h 30.65 v 24.77 h -30.65 v 60.17 c 0,7.92 1.44,13.51 4.32,16.76 2.88,3.25 7.4,4.88 13.57,4.88 1.75,0 3.86,-0.42 6.32,-1.25 2.46,-0.83 4.6,-1.83 6.44,-3 v 25.02 c -1.92,1.08 -5.11,2.08 -9.57,3 -4.46,0.92 -8.86,1.38 -13.2,1.38 -12.76,0 -22.33,-3.39 -28.71,-10.19 -6.38,-6.8 -9.57,-17.03 -9.57,-30.71 z"
   id="path992" />
			<g
   class="st10"
   id="g1002">
				<rect
   x="2298.97"
   y="408.23999"
   class="st11"
   width="142.09"
   height="142.09"
   id="rect994" />
				<rect
   x="2455.8401"
   y="408.23999"
   class="st12"
   width="142.09"
   height="142.09"
   id="rect996" />
				<rect
   x="2298.97"
   y="565.10999"
   class="st13"
   width="142.09"
   height="142.09"
   id="rect998" />
				<rect
   x="2455.8401"
   y="565.10999"
   class="st14"
   width="142.09"
   height="142.09"
   id="rect1000" />
			</g>
		</g><g
   class="st0"
   id="g1066"
   transform="translate(0,-675.66988)">
			<path
   class="st10"
   d="m 1059.3,1121.49 h -19.61 v 57.62 h -7.4 v -57.62 h -19.61 v -6.02 h 46.61 v 6.02 z"
   id="path1006" />
			<path
   class="st10"
   d="m 1118.72,1173.09 v 6.02 h -41.88 v -63.64 h 40.94 v 6.02 h -33.63 v 21.76 h 30.62 v 6.02 h -30.62 v 23.82 z"
   id="path1008" />
			<path
   class="st10"
   d="m 1161.04,1179.97 c -17.2,0 -27.43,-12.13 -27.43,-32.68 0,-20.55 10.23,-32.68 27.43,-32.68 13.93,0 23.39,8.77 25.71,23.56 h -7.14 c -2.06,-10.92 -9.03,-17.29 -18.58,-17.29 -12.47,0 -19.78,9.8 -19.78,26.4 0,16.6 7.31,26.4 19.78,26.4 9.63,0 16.51,-6.62 18.58,-17.89 h 7.14 c -2.32,15.15 -11.87,24.18 -25.71,24.18 z"
   id="path1010" />
			<path
   class="st10"
   d="m 1253.06,1115.47 v 63.64 h -7.31 v -29.33 h -32.25 v 29.33 h -7.31 v -63.64 h 7.31 v 28.29 h 32.25 v -28.29 z"
   id="path1012" />
			<path
   class="st10"
   d="m 1324,1115.47 v 63.64 h -12.9 l -26.92,-62.95 h -0.17 l 0.26,62.95 h -7.14 v -63.64 h 13.07 l 26.83,62.95 h 0.17 l -0.17,-62.95 z"
   id="path1014" />
			<path
   class="st10"
   d="m 1344.47,1147.29 c 0,-20.55 10.32,-32.68 27.61,-32.68 17.37,0 27.61,12.13 27.61,32.68 0,20.55 -10.23,32.68 -27.61,32.68 -17.29,0 -27.61,-12.12 -27.61,-32.68 z m 47.65,0 c 0,-16.6 -7.48,-26.4 -20.04,-26.4 -12.64,0 -19.95,9.8 -19.95,26.4 0,16.6 7.31,26.4 19.95,26.4 12.55,0 20.04,-9.8 20.04,-26.4 z"
   id="path1016" />
			<path
   class="st10"
   d="m 1456.79,1172.92 v 6.19 h -36.64 v -63.64 h 7.31 v 57.45 z"
   id="path1018" />
			<path
   class="st10"
   d="m 1467.62,1147.29 c 0,-20.55 10.32,-32.68 27.61,-32.68 17.37,0 27.61,12.13 27.61,32.68 0,20.55 -10.23,32.68 -27.61,32.68 -17.29,0 -27.61,-12.12 -27.61,-32.68 z m 47.65,0 c 0,-16.6 -7.48,-26.4 -20.04,-26.4 -12.64,0 -19.95,9.8 -19.95,26.4 0,16.6 7.31,26.4 19.95,26.4 12.55,0 20.04,-9.8 20.04,-26.4 z"
   id="path1020" />
			<path
   class="st10"
   d="m 1593.01,1146.17 v 32.94 h -6.97 v -23.13 h -0.17 c 0,15.05 -8.26,23.99 -22.19,23.99 -14.62,0 -23.91,-12.13 -23.91,-32.68 0,-20.55 10.23,-32.68 27.52,-32.68 13.59,0 22.88,8.6 25.2,22.96 h -7.14 c -2.06,-10.49 -8.86,-16.68 -18.06,-16.68 -12.56,0 -19.95,9.8 -19.95,26.4 0,16.6 7.14,26.4 19.26,26.4 11.95,0 19.01,-8.17 19.26,-22.02 h -20.12 v -5.5 z"
   id="path1022" />
			<path
   class="st10"
   d="m 1661.29,1115.47 -32.16,63.64 h -8.17 l 11.87,-23.82 h -7.14 l -20.21,-39.82 h 8.69 l 19.44,39.13 h 0.17 l 19.35,-39.13 z"
   id="path1024" />
			<path
   class="st10"
   d="m 1735.68,1162.77 h -30.44 l -5.33,16.34 h -7.57 l 21.84,-63.64 h 13.07 l 21.76,63.64 h -8 z m -1.89,-6.02 -13.16,-40.59 h -0.17 l -13.24,40.59 z"
   id="path1026" />
			<path
   class="st10"
   d="m 1812.91,1115.47 v 63.64 h -12.9 l -26.92,-62.95 h -0.17 l 0.26,62.95 h -7.14 v -63.64 h 13.07 l 26.83,62.95 h 0.17 l -0.17,-62.95 z"
   id="path1028" />
			<path
   class="st10"
   d="m 1836.99,1115.47 h 18.4 c 19.01,0 30.27,11.87 30.27,31.82 0,19.95 -11.27,31.82 -30.27,31.82 h -18.4 z m 18.92,57.62 c 13.93,0 22.1,-9.55 22.1,-25.8 0,-16.25 -8.17,-25.8 -22.1,-25.8 h -11.61 v 51.6 z"
   id="path1030" />
			<path
   class="st10"
   d="m 1934.17,1115.47 h 7.31 v 63.64 h -7.31 z"
   id="path1032" />
			<path
   class="st10"
   d="m 2012.42,1115.47 v 63.64 h -12.9 l -26.92,-62.95 h -0.17 l 0.26,62.95 h -7.14 v -63.64 h 13.07 l 26.83,62.95 h 0.17 l -0.17,-62.95 z"
   id="path1034" />
			<path
   class="st10"
   d="m 2083.37,1115.47 v 63.64 h -12.9 l -26.92,-62.95 h -0.17 l 0.26,62.95 h -7.14 v -63.64 h 13.07 l 26.83,62.95 h 0.17 l -0.17,-62.95 z"
   id="path1036" />
			<path
   class="st10"
   d="m 2103.84,1147.29 c 0,-20.55 10.32,-32.68 27.61,-32.68 17.37,0 27.61,12.13 27.61,32.68 0,20.55 -10.23,32.68 -27.61,32.68 -17.29,0 -27.61,-12.12 -27.61,-32.68 z m 47.64,0 c 0,-16.6 -7.48,-26.4 -20.04,-26.4 -12.64,0 -19.95,9.8 -19.95,26.4 0,16.6 7.31,26.4 19.95,26.4 12.56,0 20.04,-9.8 20.04,-26.4 z"
   id="path1038" />
			<path
   class="st10"
   d="m 2225.44,1115.47 -19.87,63.64 h -13.59 l -19.78,-63.64 h 8 l 18.66,62.95 h 0.17 l 18.75,-62.95 z"
   id="path1040" />
			<path
   class="st10"
   d="m 2276.1,1162.77 h -30.44 l -5.33,16.34 h -7.57 l 21.84,-63.64 h 13.07 l 21.76,63.64 h -8 z m -1.89,-6.02 -13.16,-40.59 h -0.17 l -13.24,40.59 z"
   id="path1042" />
			<path
   class="st10"
   d="m 2341.03,1121.49 h -19.61 v 57.62 h -7.4 v -57.62 h -19.61 v -6.02 h 46.61 v 6.02 z"
   id="path1044" />
			<path
   class="st10"
   d="m 2358.57,1115.47 h 7.31 v 63.64 h -7.31 z"
   id="path1046" />
			<path
   class="st10"
   d="m 2386.35,1147.29 c 0,-20.55 10.32,-32.68 27.61,-32.68 17.37,0 27.61,12.13 27.61,32.68 0,20.55 -10.23,32.68 -27.61,32.68 -17.29,0 -27.61,-12.12 -27.61,-32.68 z m 47.64,0 c 0,-16.6 -7.48,-26.4 -20.04,-26.4 -12.64,0 -19.95,9.8 -19.95,26.4 0,16.6 7.31,26.4 19.95,26.4 12.56,0 20.04,-9.8 20.04,-26.4 z"
   id="path1048" />
			<path
   class="st10"
   d="m 2508.9,1115.47 v 63.64 H 2496 l -26.92,-62.95 h -0.17 l 0.26,62.95 h -7.14 v -63.64 h 13.07 l 26.83,62.95 h 0.17 l -0.17,-62.95 z"
   id="path1050" />
			<path
   class="st10"
   d="m 2604.36,1134.65 c 0,12.04 -7.91,19.26 -21.41,19.26 h -14.45 v 25.2 h -7.31 v -63.64 h 21.84 c 13.41,0 21.33,7.14 21.33,19.18 z m -7.57,0 c 0,-8.26 -4.9,-13.16 -13.33,-13.16 h -14.96 v 26.4 h 14.88 c 8.42,0 13.41,-4.98 13.41,-13.24 z"
   id="path1052" />
			<path
   class="st10"
   d="m 2655.96,1162.77 h -30.44 l -5.33,16.34 h -7.57 l 21.84,-63.64 h 13.07 l 21.76,63.64 h -8 z m -1.9,-6.02 -13.16,-40.59 h -0.17 l -13.24,40.59 z"
   id="path1054" />
			<path
   class="st10"
   d="m 2732.75,1179.11 h -8.26 l -15.91,-27.18 h -14.96 v 27.18 h -7.31 v -63.64 h 22.7 c 13.67,0 21.84,6.54 21.84,17.54 0,11.78 -7.91,18.75 -21.41,18.75 v 0.17 c 4.3,0 8.94,2.92 11.95,8.17 z m -23.22,-32.94 c 8.69,0 13.76,-4.73 13.76,-12.64 0,-7.57 -5.16,-12.04 -13.76,-12.04 h -15.91 v 24.68 z"
   id="path1056" />
			<path
   class="st10"
   d="m 2790.89,1121.49 h -19.61 v 57.62 h -7.4 v -57.62 h -19.61 v -6.02 h 46.61 v 6.02 z"
   id="path1058" />
			<path
   class="st10"
   d="m 2855.3,1115.47 v 63.64 h -12.9 l -26.92,-62.95 h -0.17 l 0.26,62.95 h -7.14 v -63.64 h 13.07 l 26.83,62.95 h 0.17 l -0.17,-62.95 z"
   id="path1060" />
			<path
   class="st10"
   d="m 2921.26,1173.09 v 6.02 h -41.88 v -63.64 h 40.94 v 6.02 h -33.63 v 21.76 h 30.62 v 6.02 h -30.62 v 23.82 z"
   id="path1062" />
			<path
   class="st10"
   d="m 2987.31,1179.11 h -8.26 l -15.91,-27.18 h -14.96 v 27.18 h -7.31 v -63.64 h 22.7 c 13.67,0 21.84,6.54 21.84,17.54 0,11.78 -7.91,18.75 -21.41,18.75 v 0.17 c 4.3,0 8.94,2.92 11.95,8.17 z m -23.22,-32.94 c 8.69,0 13.76,-4.73 13.76,-12.64 0,-7.57 -5.16,-12.04 -13.76,-12.04 h -15.91 v 24.68 z"
   id="path1064" />
		</g><g
   class="st0"
   id="g1112"
   transform="translate(0,-675.66988)">
			<path
   class="st10"
   d="m 1284.83,1247.29 c 0,-20.55 10.32,-32.68 27.61,-32.68 17.37,0 27.61,12.13 27.61,32.68 0,20.55 -10.23,32.68 -27.61,32.68 -17.29,0 -27.61,-12.12 -27.61,-32.68 z m 47.65,0 c 0,-16.6 -7.48,-26.4 -20.04,-26.4 -12.64,0 -19.95,9.8 -19.95,26.4 0,16.6 7.31,26.4 19.95,26.4 12.56,0 20.04,-9.8 20.04,-26.4 z"
   id="path1068" />
			<path
   class="st10"
   d="m 1367.82,1221.49 v 22.36 h 26.49 v 6.02 h -26.49 v 29.24 h -7.31 v -63.64 h 38.27 v 6.02 z"
   id="path1070" />
			<path
   class="st10"
   d="m 1480.14,1221.49 h -19.61 v 57.62 h -7.4 v -57.62 h -19.61 v -6.02 h 46.61 v 6.02 z"
   id="path1072" />
			<path
   class="st10"
   d="m 1544.55,1215.47 v 63.64 h -7.31 v -29.33 h -32.25 v 29.33 h -7.31 v -63.64 h 7.31 v 28.29 h 32.25 v -28.29 z"
   id="path1074" />
			<path
   class="st10"
   d="m 1610.51,1273.09 v 6.02 h -41.88 v -63.64 h 40.94 v 6.02 h -33.63 v 21.76 h 30.62 v 6.02 h -30.62 v 23.82 z"
   id="path1076" />
			<path
   class="st10"
   d="m 1704.42,1261.14 c 0,11.27 -7.74,17.97 -20.9,17.97 h -25.2 v -63.64 h 23.91 c 10.92,0 17.29,5.5 17.29,14.71 0,8.43 -6.02,13.33 -16.25,13.33 v 0.17 h 1.12 c 12.64,0 20.03,6.45 20.03,17.46 z m -24.59,-39.65 h -14.19 v 22.02 h 14.19 c 7.57,0 12.04,-4.04 12.04,-10.92 0,-6.97 -4.47,-11.1 -12.04,-11.1 z m 17.03,39.65 c 0,-7.48 -4.82,-11.87 -12.9,-11.87 h -18.32 v 23.82 h 18.32 c 8.08,0 12.9,-4.47 12.9,-11.95 z"
   id="path1078" />
			<path
   class="st10"
   d="m 1724.2,1215.47 h 7.31 v 63.64 h -7.31 z"
   id="path1080" />
			<path
   class="st10"
   d="m 1792.23,1272.92 v 6.19 h -36.64 v -63.64 h 7.31 v 57.45 z"
   id="path1082" />
			<path
   class="st10"
   d="m 1846.49,1272.92 v 6.19 h -36.64 v -63.64 h 7.31 v 57.45 z"
   id="path1084" />
			<path
   class="st10"
   d="m 1864.12,1215.47 h 7.31 v 63.64 h -7.31 z"
   id="path1086" />
			<path
   class="st10"
   d="m 1937.39,1273.09 v 6.02 h -41.88 v -63.64 h 40.94 v 6.02 h -33.63 v 21.76 h 30.62 v 6.02 h -30.62 v 23.82 z"
   id="path1088" />
			<path
   class="st10"
   d="m 2007.14,1260.97 v -45.49 h 7.39 v 44.98 c 0,12.3 -6.96,19.52 -18.66,19.52 -11.01,0 -18.06,-8.17 -19,-21.93 h 6.96 c 0.77,9.8 5.42,15.65 12.21,15.65 6.97,-0.01 11.1,-4.74 11.1,-12.73 z"
   id="path1090" />
			<path
   class="st10"
   d="m 2079.89,1273.09 v 6.02 h -41.88 v -63.64 h 40.94 v 6.02 h -33.63 v 21.76 h 30.62 v 6.02 h -30.62 v 23.82 z"
   id="path1092" />
			<path
   class="st10"
   d="m 2135.79,1262.77 h -30.44 l -5.33,16.34 h -7.57 l 21.84,-63.64 h 13.07 l 21.76,63.64 h -8 z m -1.89,-6.02 -13.16,-40.59 h -0.17 l -13.24,40.59 z"
   id="path1094" />
			<path
   class="st10"
   d="m 2213.02,1215.47 v 63.64 h -12.9 l -26.92,-62.95 h -0.17 l 0.26,62.95 h -7.14 v -63.64 h 13.07 l 26.83,62.95 h 0.17 l -0.17,-62.95 z"
   id="path1096" />
			<path
   class="st10"
   d="m 2316.73,1279.11 h -10.06 l -34.05,-32.77 h -0.17 v 32.77 h -7.14 v -63.64 h 7.14 v 30.19 h 0.17 l 31.65,-30.19 h 9.38 l -32.25,30.44 z"
   id="path1098" />
			<path
   class="st10"
   d="m 2332.3,1215.47 h 7.31 v 63.64 h -7.31 z"
   id="path1100" />
			<path
   class="st10"
   d="m 2410.56,1215.47 v 63.64 h -12.9 l -26.92,-62.95 h -0.17 l 0.26,62.95 h -7.14 v -63.64 h 13.07 l 26.83,62.95 h 0.17 l -0.17,-62.95 z"
   id="path1102" />
			<path
   class="st10"
   d="m 2484.35,1246.17 v 32.94 h -6.96 v -23.13 h -0.17 c 0,15.05 -8.26,23.99 -22.19,23.99 -14.62,0 -23.91,-12.13 -23.91,-32.68 0,-20.55 10.23,-32.68 27.52,-32.68 13.59,0 22.88,8.6 25.2,22.96 h -7.14 c -2.06,-10.49 -8.86,-16.68 -18.06,-16.68 -12.56,0 -19.95,9.8 -19.95,26.4 0,16.6 7.14,26.4 19.26,26.4 11.95,0 19.01,-8.17 19.26,-22.02 h -20.12 v -5.5 z"
   id="path1104" />
			<path
   class="st10"
   d="m 2557.62,1279.97 c -17.2,0 -27.43,-12.13 -27.43,-32.68 0,-20.55 10.23,-32.68 27.43,-32.68 13.93,0 23.39,8.77 25.71,23.56 h -7.14 c -2.06,-10.92 -9.03,-17.29 -18.58,-17.29 -12.47,0 -19.78,9.8 -19.78,26.4 0,16.6 7.31,26.4 19.78,26.4 9.63,0 16.51,-6.62 18.58,-17.89 h 7.14 c -2.32,15.15 -11.87,24.18 -25.71,24.18 z"
   id="path1106" />
			<path
   class="st10"
   d="m 2641.64,1215.47 h 6.97 v 41.71 c 0,14.28 -8.69,22.79 -23.31,22.79 -14.53,0 -23.22,-8.51 -23.22,-22.79 v -41.71 h 7.4 v 42.22 c 0,10.06 5.93,16 15.99,16 10.15,0 16.17,-5.93 16.17,-16 z"
   id="path1108" />
			<path
   class="st10"
   d="m 2715.17,1234.65 c 0,12.04 -7.91,19.26 -21.41,19.26 h -14.45 v 25.2 H 2672 v -63.64 h 21.84 c 13.42,0 21.33,7.14 21.33,19.18 z m -7.57,0 c 0,-8.26 -4.9,-13.16 -13.33,-13.16 h -14.96 v 26.4 h 14.88 c 8.42,0 13.41,-4.98 13.41,-13.24 z"
   id="path1110" />
		</g>

</svg>
