<svg id="Layer_1" data-name="Layer 1" xmlns="http://www.w3.org/2000/svg" width="306.08" height="330" viewBox="0 0 306.08 330"><title>Copa del Rey logo - Brandlogos.net</title><path d="M224.69,241.31V136.18h-21l-.3,67.62c0,27.3,10.31,41.07,22.64,50.83a64.12,64.12,0,0,1-1.39-13.33m76.44,55.84v54.34c0,28.24-17,63.42-52.32,68a132.18,132.18,0,0,1-13.52-7.93c16,1.19,51.47-17.09,51.47-66.53V306.06c-27.89-5.3-49.29-20.11-58.06-42.8-32.9-16.85-40.18-50.58-40.18-71.69V129h52V238.09c-.05,34.58,27.7,56.68,60.64,59.06m84.92-42.51c12.28-9.76,22.64-23.53,22.64-50.83l-.3-67.62h-21V241.31a64.48,64.48,0,0,1-1.39,13.33m-14.37-16.5V129h52v62.52c0,21.16-7.28,54.89-40.18,71.69-8.82,22.69-30.22,37.56-58.07,42.8V345c0,49.44,35.47,67.72,51.48,66.53a132.84,132.84,0,0,1-13.52,7.93c-35.22-4.56-52.32-39.73-52.32-68V297.15c32.9-2.38,60.64-24.47,60.64-59m57.57-23a95,95,0,0,1-3.91,12.73,140.23,140.23,0,1,1-238.6.1,99.55,99.55,0,0,1-3.91-12.73,153,153,0,1,0,246.42-.1M306,161.4a140.11,140.11,0,0,0-55.14,11.25v-9.57a153.3,153.3,0,0,1,110.38.05v9.56A139.21,139.21,0,0,0,306,161.4" transform="translate(-153 -129)" style="fill:#221c35"/><path d="M278.34,182.7h-.59c-5,0-7,2.28-7,7.73v28.44c0,5.55,2,7.83,7,7.83h.59c4.8,0,6.94-2.38,6.94-7.43v-9.51h-4.66v9.81c0,1.84-.84,2.93-2.33,2.93h-.4q-2.38,0-2.38-3V189.89c0-1.88.79-2.93,2.38-2.93h.4c1.49,0,2.33,1,2.33,2.93V199h4.66v-8.82c0-5.05-2.13-7.48-6.94-7.48" transform="translate(-153 -129)" style="fill:#ff0b32"/><path d="M294.15,189.89c0-1.88.84-2.92,2.43-2.92h.49c1.49,0,2.33,1,2.33,2.92v29.68c0,1.83-.85,2.92-2.33,2.92h-.49c-1.59,0-2.43-1-2.43-2.92Zm2.33,36.81h.65c4.8,0,7-2.38,7-7.43V190.18c0-5.05-2.13-7.43-7-7.43h-.65c-4.9,0-7,2.33-7,7.43v29.08c0,5.11,2.18,7.43,7,7.43" transform="translate(-153 -129)" style="fill:#ff0b32"/><path d="M313.67,187.65H316c1.78,0,2.33.6,2.33,2.58v12.69c0,2-.64,2.58-2.58,2.58h-2.08V187.65Zm0,22.25h2.08c5.05,0,7.24-2,7.24-7.13V190.18c0-5.05-2-6.89-6.84-6.89h-7.08V226.2h4.66V209.9Z" transform="translate(-153 -129)" style="fill:#ff0b32"/><path d="M331.3,213.37,333,191.87l.2-5.05h.5l.2,5.05,1.69,21.51Zm6.49-30.12h-8.57l-3.52,42.91h4.66l.65-8.48h4.76l.65,8.48h5Z" transform="translate(-153 -129)" style="fill:#ff0b32"/><path d="M292.27,255.83a2.55,2.55,0,0,1-.4,1.59,1.86,1.86,0,0,1-1.44.44h-1.09v-10.8h1.44a1.57,1.57,0,0,1,1.19.34,2.51,2.51,0,0,1,.3,1.44Zm3.57,3.22a7.05,7.05,0,0,0,.79-3.67v-6.74c0-2.13-.4-3.57-1.24-4.41S293.11,243,291,243h-6.09v32.6h4.41v-16.4h.35l3,16.4h4.8l-3.12-15.36a3.44,3.44,0,0,0,1.44-1.19" transform="translate(-153 -129)" style="fill:#ff0b32"/><polygon points="152.49 130.59 156.26 130.59 156.26 126.73 152.49 126.73 152.49 118.16 157.3 118.16 157.3 114 148.03 114 148.03 146.6 157.6 146.6 157.6 142.43 152.49 142.43 152.49 130.59" style="fill:#ff0b32"/><polygon points="170.53 114 168.39 128.96 168.25 131.93 167.8 131.93 167.7 128.96 165.57 114 161.06 114 165.57 138.72 165.57 146.59 170.33 146.59 170.33 138.72 174.84 114 170.53 114" style="fill:#ff0b32"/><path d="M299.7,234.67c0,1-.75,1.59-2,1.59h-1.84v-3.32h1.84c1.34,0,2,.55,2,1.59Zm-1.88-3H294.4v5.75h3.42c2.13,0,3.32-1,3.32-2.82v-.1c0-1.84-1.19-2.83-3.32-2.83" transform="translate(-153 -129)" style="fill:#ff0b32"/><polygon points="157.05 103.94 157.05 102.7 150.86 102.7 150.86 108.5 157.1 108.5 157.1 107.26 152.29 107.26 152.29 106.12 156.46 106.12 156.46 104.93 152.29 104.93 152.29 103.94 157.05 103.94" style="fill:#ff0b32"/><polygon points="166.27 107.26 161.71 107.26 161.71 102.7 160.27 102.7 160.27 108.5 166.27 108.5 166.27 107.26" style="fill:#ff0b32"/></svg>