<?xml version="1.0" encoding="UTF-8" standalone="no"?>
<svg
   xmlns:dc="http://purl.org/dc/elements/1.1/"
   xmlns:cc="http://creativecommons.org/ns#"
   xmlns:rdf="http://www.w3.org/1999/02/22-rdf-syntax-ns#"
   xmlns:svg="http://www.w3.org/2000/svg"
   xmlns="http://www.w3.org/2000/svg"
   xmlns:xlink="http://www.w3.org/1999/xlink"
   xmlns:sodipodi="http://sodipodi.sourceforge.net/DTD/sodipodi-0.dtd"
   xmlns:inkscape="http://www.inkscape.org/namespaces/inkscape"
   version="1.1"
   width="620"
   height="623"
   id="svg2"
   inkscape:version="0.91 r13725"
   sodipodi:docname="Laver-Cup4-Globe.svg">
  <metadata
     id="metadata43">
    <rdf:RDF>
      <cc:Work
         rdf:about="">
        <dc:format>image/svg+xml</dc:format>
        <dc:type
           rdf:resource="http://purl.org/dc/dcmitype/StillImage" />
        <dc:title></dc:title>
      </cc:Work>
    </rdf:RDF>
  </metadata>
  <sodipodi:namedview
     pagecolor="#ffffff"
     bordercolor="#666666"
     borderopacity="1"
     objecttolerance="10"
     gridtolerance="10"
     guidetolerance="10"
     inkscape:pageopacity="0"
     inkscape:pageshadow="2"
     inkscape:window-width="1920"
     inkscape:window-height="1027"
     id="namedview41"
     showgrid="false"
     inkscape:zoom="1.2361274"
     inkscape:cx="288.86977"
     inkscape:cy="314.3358"
     inkscape:window-x="-8"
     inkscape:window-y="-8"
     inkscape:window-maximized="1"
     inkscape:current-layer="layer1"
     fit-margin-top="0"
     fit-margin-left="0"
     fit-margin-right="0"
     fit-margin-bottom="0" />
  <desc
     id="desc4">European flag</desc>
  <defs
     id="defs6">
    <g
       id="s">
      <g
         id="c">
        <path
           id="t"
           d="M 0,0 0,1 0.5,1 Z"
           transform="matrix(0.95105652,0.30901699,-0.30901699,0.95105652,0,-1)"
           inkscape:connector-curvature="0" />
        <use
           xlink:href="#t"
           transform="scale(-1,1)"
           id="use11"
           x="0"
           y="0"
           width="100%"
           height="100%" />
      </g>
      <g
         id="a">
        <use
           xlink:href="#c"
           transform="matrix(0.30901699,0.95105652,-0.95105652,0.30901699,0,0)"
           id="use14"
           x="0"
           y="0"
           width="100%"
           height="100%" />
        <use
           xlink:href="#c"
           transform="matrix(-0.80901699,0.58778525,-0.58778525,-0.80901699,0,0)"
           id="use16"
           x="0"
           y="0"
           width="100%"
           height="100%" />
      </g>
      <use
         xlink:href="#a"
         transform="scale(-1,1)"
         id="use18"
         x="0"
         y="0"
         width="100%"
         height="100%" />
    </g>
  </defs>
  <g
     inkscape:groupmode="layer"
     id="layer1"
     inkscape:label="globe"
     style="display:inline"
     sodipodi:insensitive="true">
    <rect
       style="color:#000000;clip-rule:nonzero;display:inline;overflow:visible;visibility:visible;opacity:1;isolation:auto;mix-blend-mode:normal;color-interpolation:sRGB;color-interpolation-filters:linearRGB;solid-color:#000000;solid-opacity:1;fill:#7e1e1a;fill-opacity:1;fill-rule:nonzero;stroke:none;stroke-width:1;stroke-linecap:butt;stroke-linejoin:miter;stroke-miterlimit:4;stroke-dasharray:none;stroke-dashoffset:0;stroke-opacity:1;color-rendering:auto;image-rendering:auto;shape-rendering:auto;text-rendering:auto;enable-background:accumulate"
       id="rect4220"
       width="620"
       height="623"
       x="0"
       y="0" />
    <path
       inkscape:connector-curvature="0"
       id="path3280-3"
       d="M 309.98489,69.79449 C 176.51813,69.824704 68.324705,178.01813 68.294491,311.48489 68.324705,444.99697 176.51813,553.1904 309.98489,553.20551 443.49697,553.1753 551.6904,444.99697 551.70551,311.48489 551.6904,178.01813 443.49697,69.824704 309.98489,69.79449 Z M 99.293223,326.6217 l 75.351697,0 c 1.07256,28.08316 4.92474,53.28096 10.87674,75.51787 l -66.27263,0 C 108.20611,378.96605 101.25708,353.54165 99.293223,326.6217 Z m 225.813367,-135.94424 0,-87.46718 c 14.21531,10.65015 45.18383,37.78159 66.96754,87.48229 l -66.96754,0 z m 78.08599,30.19808 c 6.46562,21.70818 10.78611,46.90598 12.00974,75.53297 l -90.09573,0 0,-75.53297 78.08599,0 z M 288.03501,108.54291 c 2.62855,-2.17535 4.86433,-3.89751 6.8584,-5.37795 l 0,87.5125 -67.04307,0 c 7.97628,-18.17323 17.1762,-33.35536 26.33079,-45.8183 12.38741,-16.82875 24.74461,-28.71764 33.85388,-36.31625 z m 6.8584,112.33263 0,75.53297 -90.03531,0 c 1.22364,-28.76295 5.64987,-53.82479 12.16081,-75.53297 l 77.8745,0 z m -120.24849,75.53297 -75.351697,0 c 1.948747,-26.90484 8.882677,-52.35945 19.925597,-75.53297 l 66.30284,0 c -5.952,22.25201 -9.80418,47.46492 -10.87674,75.53297 z m 30.13765,30.21319 90.11084,0 0,75.51787 -78.1011,0 C 210.32669,380.4465 206.0062,355.2487 204.78257,326.6217 Z m 90.11084,105.74616 0,87.45208 c -14.2002,-10.63505 -45.18383,-37.75138 -66.96754,-87.45208 l 66.96754,0 z m 37.05647,82.10434 c -2.61344,2.17535 -4.86432,3.8824 -6.84329,5.37795 l 0,-87.46718 67.02796,0 c -7.96117,18.15812 -17.17619,33.32514 -26.33079,45.78808 -12.3723,16.79854 -24.7446,28.71764 -33.85388,36.30115 z m -6.84329,-112.33263 0,-75.51787 90.0202,0 c -1.22363,28.74785 -5.64987,53.80969 -12.1457,75.51787 l -77.8745,0 z m 120.24849,-75.51787 75.32148,0 c -1.94875,26.90485 -8.89778,52.34435 -19.9407,75.51787 l -66.25752,0 c 5.93689,-22.23691 9.78907,-47.43471 10.87674,-75.51787 z m 0,-30.21319 c -1.08767,-28.08316 -4.92474,-53.28096 -10.89185,-75.53297 l 66.28774,0 c 11.04292,23.17352 17.99195,48.62813 19.92559,75.53297 l -75.32148,0 z m 37.96288,-105.73105 -58.74955,0 c -13.30891,-34.44304 -30.77213,-60.60766 -47.07215,-79.38515 43.26529,14.60807 80.20091,42.70634 105.8217,79.38515 z M 242.48863,111.29231 c -16.28491,18.7926 -33.76324,44.95722 -47.05704,79.38515 l -58.74955,0 c 25.63589,-36.67881 62.57152,-64.77708 105.80659,-79.38515 z m -105.76127,321.07555 58.71934,0 c 13.27869,34.38261 30.72681,60.53212 47.01172,79.30962 -43.20486,-14.59297 -80.11027,-42.66102 -105.73106,-79.30962 z m 240.79912,79.30962 c 16.28491,-18.7775 33.73302,-44.92701 47.02682,-79.30962 l 58.71934,0 c -25.62079,36.6486 -62.5262,64.71665 -105.74616,79.30962 z"
       style="fill:#ffffff;fill-opacity:1" />
  </g>
</svg>
