<svg data-name="Capa 2" viewBox="0 0 85.04 55.13" xmlns="http://www.w3.org/2000/svg" xmlns:xlink="http://www.w3.org/1999/xlink"><defs><linearGradient id="a" x1="42.11" x2="8.14" y1="-3.36" y2="36.58" data-name="Degradado sin nombre 10" gradientUnits="userSpaceOnUse"><stop stop-color="#00ead2" offset=".02"/><stop stop-color="#5f29ff" offset="1"/></linearGradient><linearGradient id="b" x1="57.88" x2="23.9" y1="10.04" y2="49.98" data-name="Degradado sin nombre 10" xlink:href="#a"/><linearGradient id="c" x1="34.05" x2=".08" y1="-10.22" y2="29.72" data-name="Degradado sin nombre 10" xlink:href="#a"/><linearGradient id="d" x1="-77.01" x2="-109.71" y1="324.82" y2="384.06" data-name="Degradado sin nombre 11" gradientTransform="rotate(-2.45 -7546.242 -2184.406)" gradientUnits="userSpaceOnUse"><stop stop-color="#00ead2" offset=".07"/><stop stop-color="#5f29ff" offset="1"/></linearGradient><linearGradient id="e" x1="89.59" x2="16.04" y1="133.45" y2="149.08" data-name="Degradado sin nombre 18" gradientTransform="rotate(-1 -7308.932 252.505)" gradientUnits="userSpaceOnUse"><stop stop-color="#00ead2" offset=".08"/><stop stop-color="#5f29ff" offset=".92"/></linearGradient></defs><g data-name="Liga F"><path d="M53.65.21C51.22 0 48.8-.06 46.42.06 35.59.57 25.2 3.84 17.01 9.02c1.79 4.62 2.5 9.44 2.29 14.33 1.56-.39 3.18-.66 4.84-.84C29.41 9.76 40.4 2.54 53.65.21Z" style="fill:url(#a)"/><path d="M61.68 21.23c-4.44-2.51-11.14-5.02-17.64-6.49-.13.02-.26.03-.39.05-1 .16-1.99.38-2.97.66-3.77 1.24-6.57 3.89-8.66 6.97 7.3.55 14.5 2.69 19.43 5.51.92.53 1.95.38 2.99-.17l7.27-4.12c1.01-.57 1-1.83-.01-2.4Z" style="fill:url(#b)"/><path d="M8.35 22.73c.17-.4.37-.83.58-1.29.39-.93.71-1.9.98-2.88.34-1.47.43-2.93.33-4.35C4.68 19.37 1 25.68.18 32.65c3.49-2.81 6.34-6.12 8.17-9.92Z" style="fill:url(#c)"/><path d="M17.01 9.01c-2.47 1.56-4.75 3.3-6.78 5.19.1 1.43.01 2.88-.33 4.35-.27.99-.59 1.95-.98 2.88-.21.46-.4.89-.58 1.29-1.83 3.8-4.68 7.1-8.17 9.92-.64 5.39.43 11.17 3.68 17.13.28.51.88.82 1.54.82h2.74c.43 0 .72-.37.55-.71-1.39-2.72-5.9-12.7-1.13-19.38.46-.6.96-1.16 1.49-1.69.27-.26.53-.49.76-.72 2.59-2.31 5.87-3.85 9.49-4.76.21-4.88-.5-9.71-2.29-14.33Z" style="fill:url(#d)"/><path d="M40.67 15.45c.98-.28 1.98-.51 2.97-.66.14-.02.26-.03.39-.05-3.29-.74-6.54-1.23-9.42-1.31-.46-.01-.51-.58-.06-.64 11.72-1.74 24.88 1.59 34.36 6.66.92.49 2.12.41 2.94-.2l12.41-6.9c1.01-.56 1.03-1.81.03-2.39-8.28-4.78-19.56-8.8-30.64-9.75C40.4 2.54 29.41 9.76 24.14 22.5c2.57-.26 5.23-.28 7.88-.08 2.09-3.08 4.89-5.73 8.66-6.97Z" style="fill:url(#e)"/><path d="M18.22 47.43h7.34v3.17H14.85V33.76h3.37v13.67Zm12.82-11.68c-.39.38-.86.57-1.42.57s-1.04-.19-1.42-.57-.58-.85-.58-1.41.19-1.02.58-1.41.86-.57 1.42-.57 1.04.19 1.42.57.58.85.58 1.41-.19 1.02-.58 1.41ZM28.03 50.6V38.16h3.17V50.6h-3.17Zm13.98-.01c1.24 0 2.27.32 3.09.97.82.65 1.34 1.54 1.54 2.69l-3.28.88c-.05-.45-.25-.81-.61-1.08s-.81-.41-1.37-.41H37.3c-1.16 0-2.09-.31-2.79-.92s-1.05-1.41-1.05-2.41c0-.64.15-1.24.46-1.8.31-.56.71-1 1.22-1.32-1.1-1.03-1.66-2.32-1.66-3.87s.55-2.87 1.66-3.91 2.5-1.56 4.16-1.56c.96 0 1.87.19 2.72.58.18-.68.56-1.21 1.13-1.59.57-.38 1.26-.58 2.07-.58h1.02v2.93h-.88c-.32 0-.59.08-.83.24-.23.16-.38.38-.43.66.71.93 1.07 2.01 1.07 3.23 0 1.56-.56 2.86-1.68 3.9s-2.51 1.56-4.18 1.56c-.68 0-1.37-.1-2.05-.31-.42.25-.63.61-.63 1.07 0 .3.12.55.37.75.25.2.56.3.95.3H42Zm-2.69-9.74c-.75 0-1.36.23-1.85.7s-.73 1.06-.73 1.76.24 1.29.73 1.76 1.11.7 1.85.7 1.35-.23 1.85-.7c.49-.47.74-1.06.74-1.76s-.25-1.29-.74-1.76-1.11-.7-1.85-.7Zm17.85-2.7h3.17v12.44h-3.17V49.1c-1.09 1.19-2.44 1.79-4.05 1.79-1.73 0-3.18-.62-4.34-1.87s-1.74-2.8-1.74-4.65.58-3.4 1.74-4.65 2.61-1.87 4.34-1.87c1.62 0 2.97.59 4.05 1.78v-1.48zm-3.44 9.66c.98 0 1.81-.33 2.46-.99s.98-1.48.98-2.45-.33-1.8-.98-2.45-1.48-.99-2.46-.99-1.79.33-2.44.99-.98 1.48-.98 2.45.33 1.8.98 2.45c.65.66 1.47.99 2.44.99zm25.23-10.88h-7.59v3.79h6.61v3.17h-6.61v6.71H68V33.76h10.96v3.17z" style="fill:#00256a"/></g></svg>