<?xml version="1.0" encoding="UTF-8"?>
<svg id="a" xmlns="http://www.w3.org/2000/svg" version="1.1" viewBox="0 0 218.8 271.6">
  <!-- Generator: Adobe Illustrator 30.0.0, SVG Export Plug-In . SVG Version: 2.1.1 Build 123)  -->
  <defs>
    <style>
      .st0 {
        fill: #ff2b07;
      }
    </style>
  </defs>
  <g id="b">
    <g id="c">
      <g id="d">
        <g id="e">
          <path id="f" d="M105.3,129.8v-13.4c-7.6,0-17.1-2.8-26.1-7.3-9.5-4.8-18-11.6-24.6-19.9h0c0-.1.1-.1.1-.1,10.6-6,17-14.3,19.6-25.3,2.7-11.3.9-25-5.2-40.8C66.1,14.9,62.2,7.3,57.6,0l-15.9,14.6c5.3,4.1,11.4,12.2,15.8,21.2,5.2,10.6,7.5,21.2,6.9,29.9-.3,4.6-1.7,9-4.3,12.8-2.6,3.8-6.1,6.8-10.3,8.8,4.3,12.5,18.8,34.8,46.2,39.4h.1c.7,9.7-.9,19.3-4.7,28.1-2.5,5.6-6.2,10.7-11.1,14.5-5.8,4.6-12.7,7.4-20,8.3,1.5,1.2,3,2.2,4.5,3.2,36.6-4.5,40.5-37.1,40.5-51"/>
        </g>
        <g id="g">
          <path id="h" d="M161.4,35.8c4.4-9,10.5-17.1,15.8-21.2L161.3,0c-4.5,7.3-8.4,14.9-11.4,22.9-6.1,15.7-7.8,29.5-5.2,40.8,2.6,11,9,19.2,19.6,25.3h.1,0c-6.6,8.5-15,15.3-24.6,20.2-9,4.5-18.5,7.3-26.1,7.3v13.4c0,13.8,3.9,46.5,40.5,51,1.5-1,3-2.1,4.5-3.2-7.3-.9-14.3-3.7-20-8.3-4.8-3.8-8.6-8.9-11.1-14.5-3.9-8.8-5.5-18.4-4.7-28h0c0,0,0,0,0,0,27.4-4.6,41.8-26.9,46.2-39.4-4.2-1.9-7.7-5-10.3-8.8-2.6-3.8-4-8.2-4.3-12.8-.6-8.7,1.7-19.3,6.9-29.9"/>
        </g>
        <g id="i">
          <path id="j" class="st0" d="M164.6,42.3c-.7,1.7-1.3,3.5-1.9,5.3,28.6,22.7,39.7,60.9,27.7,95.3-12,34.4-44.4,57.6-80.8,57.6-36.5,0-69-22.9-81.1-57.3-12.1-34.4-1.2-72.7,27.3-95.5-.5-1.8-1.2-3.6-1.8-5.3C21.3,66.5,7.8,108.8,20.4,147.3c12.7,38.5,48.6,64.5,89.2,64.4,40.5,0,76.4-26.2,88.9-64.7,12.5-38.5-1.2-80.8-33.9-104.6h0Z"/>
        </g>
        <g id="k">
          <path id="l" class="st0" d="M139.3,34.7c.4-1.8.9-3.5,1.4-5.3-20.3-7.2-42.5-7.2-62.8,0,.5,1.7,1,3.5,1.4,5.3,18.7-7,40.1-7.5,60,0"/>
        </g>
        <g id="m">
          <path id="n" d="M97.7,54h-6.2v4.2h6c1.1,0,2-.2,2.5-.5.5-.3.8-.8.8-1.5h0c0-.9-.2-1.4-.7-1.7-.5-.3-1.3-.5-2.4-.5M91.5,61.6h0v5.3h-4.1v-16.4h10.4c2.3,0,4.1.5,5.3,1.5,1.2,1,1.8,2.3,1.8,4.1h0c0,1.4-.3,2.5-.9,3.4-.5.7-1.2,1.3-2.1,1.7l3.8,5.8h-4.9l-3-5.3h-6.2,0Z"/>
        </g>
        <g id="o">
          <path id="p" d="M114.5,66.9h0v-16.4h17v3.5h-12.6v3.1h11.4v3.4h-11.4v6.4h-4.3Z"/>
        </g>
        <g id="q">
          <path id="r" d="M114.5,92h0v-16.4h17v3.5h-12.6v3.1h11.4v3.4h-11.4v6.4s-4.3,0-4.3,0Z"/>
        </g>
        <g id="s">
          <path id="t" d="M87.4,75.6h17.6v3.5h-13.3v2.8h11.6v3.4h-11.6v3.2h13.5v3.5h-17.8v-16.4h0Z"/>
        </g>
        <g id="u">
          <path id="v" d="M18.1,243.2c-1.2-.9-3.1-1.5-5.7-1.9l-3.9-.5c-2.2-.3-3.3-.9-3.3-1.9h0c0-.7.3-1.1,1-1.4s1.8-.4,3.3-.4h.3c1.3,0,2.6.2,3.9.5,1.3.4,2.4.9,3.4,1.6l2-3.1c-1.4-.9-2.8-1.5-4.3-1.9-1.5-.4-3.2-.6-5.2-.6h-.4c-2.8,0-5,.5-6.4,1.4s-2.2,2.2-2.2,4h0c0,1.6.6,2.8,1.7,3.7,1.1.9,2.9,1.5,5.3,1.8l3.9.5c1.4.2,2.4.4,3.1.7.6.3.9.7.9,1.2h0c0,.7-.4,1.2-1.2,1.5-.8.3-2,.4-3.6.4h-.3c-1.6,0-3.2-.2-4.7-.6s-2.9-1-4-1.7L0,249.9c1.5.9,3.1,1.5,4.8,1.9,1.7.4,3.6.6,5.7.6h.3c3.1,0,5.4-.4,6.8-1.3,1.5-.9,2.2-2.2,2.2-4h0c0-1.7-.6-2.9-1.8-3.8"/>
        </g>
        <g id="w">
          <path id="x" d="M41.2,242.2c0,4.2-2,6.3-6.1,6.3h-.2c-4.2,0-6.3-2.1-6.3-6.3v-8.1h-4.4v7.8c0,6.9,3.6,10.4,10.8,10.4h.2c7,0,10.5-3.5,10.5-10.4v-7.8h-4.4s0,8.1,0,8.1Z"/>
        </g>
        <g id="y">
          <path id="z" d="M65.4,240.4c0,.7-.3,1.2-.8,1.6-.5.3-1.4.5-2.5.5h-6.3v-4.5h6.5c1.1,0,1.9.2,2.4.5.5.3.7.9.7,1.6v.3h0ZM62.9,234.1h-11.6v17.8h4.4v-5.7h7.1c2.3,0,4.1-.5,5.2-1.5,1.1-1,1.7-2.5,1.7-4.5v-.3c0-2-.6-3.5-1.7-4.5-1.1-1-2.9-1.5-5.2-1.5"/>
        </g>
        <g id="aa">
          <path id="ab" d="M78.9,244.7h12.9v-3.7h-12.9v-3.1h14.7v-3.8h-19.1v17.8h19.3v-3.8h-14.8v-3.5h0Z"/>
        </g>
        <g id="ac">
          <path id="ad" d="M113.4,240.3c0,.8-.3,1.3-.9,1.7-.6.3-1.5.5-2.7.5h-6.5v-4.5h6.7c1.2,0,2,.2,2.6.5.5.3.8.9.8,1.7h0ZM117.8,240.3h0c0-2.1-.7-3.6-2-4.6-1.3-1-3.2-1.6-5.7-1.6h-11.3v17.8h4.4v-5.7h6.7l3.3,5.7h5.4l-4.1-6.3c2.2-.9,3.3-2.7,3.3-5.3"/>
        </g>
        <g id="ae">
          <path id="af" d="M134.2,248.6h-.2c-2.3,0-4.2-.5-5.6-1.5-1.4-1-2.1-2.3-2.1-4h0c0-1.8.7-3.1,2.1-4.1,1.4-1,3.3-1.5,5.6-1.5h.2c1.6,0,3.1.2,4.2.6,1.2.4,2.4,1.1,3.5,2.1l2.7-2.9c-1.4-1.3-2.9-2.2-4.6-2.8-1.7-.6-3.7-.9-5.9-.9h-.2c-2.4,0-4.5.4-6.3,1.2-1.8.8-3.3,1.9-4.3,3.3-1,1.4-1.5,3-1.5,4.8v.2c0,1.8.5,3.4,1.5,4.8,1,1.4,2.4,2.5,4.3,3.3,1.8.8,3.9,1.2,6.3,1.2h.2c4.5,0,8-1.3,10.7-3.9l-2.7-2.9c-2.2,2-4.8,3-7.9,3"/>
        </g>
        <g id="ag">
          <path id="ah" d="M166.7,243.1c0,1.6-.7,3-2,3.9-1.3,1-3,1.5-5.2,1.5h-.2c-2.2,0-3.9-.5-5.2-1.5-1.3-1-2-2.3-2-3.9h0c0-1.8.7-3.1,2-4.1,1.3-1,3-1.5,5.2-1.5h.2c2.2,0,3.9.5,5.2,1.5,1.3,1,2,2.3,2,4h0ZM168,236.2c-1-.8-2.2-1.4-3.7-1.9-1.4-.4-3-.7-4.7-.7h-.2c-1.7,0-3.3.2-4.7.7-1.4.5-2.7,1.1-3.7,1.9-1,.8-1.8,1.8-2.4,2.9-.6,1.2-.8,2.4-.8,3.8v.2c0,1.8.5,3.4,1.5,4.8,1,1.4,2.3,2.5,4.1,3.3,1.8.8,3.8,1.2,6.1,1.2h.2c2.3,0,4.3-.4,6.1-1.1,1.8-.8,3.1-1.8,4.1-3.2,1-1.4,1.5-3,1.5-4.8v-.3c0-1.4-.3-2.6-.9-3.7s-1.4-2.1-2.4-2.9"/>
        </g>
        <g id="ai">
          <path id="aj" d="M190.2,240.4c0,.7-.3,1.2-.8,1.6-.5.3-1.4.5-2.5.5h-6.3v-4.5h6.5c1.1,0,1.9.2,2.4.5.5.3.7.9.7,1.6v.3h0ZM187.7,234.1h-11.6v17.8h4.4v-5.7h7.1c2.3,0,4.1-.5,5.2-1.5,1.1-1,1.7-2.5,1.7-4.5v-.3c0-2-.6-3.5-1.7-4.5-1.1-1-2.9-1.5-5.2-1.5"/>
        </g>
        <g id="ak">
          <path id="al" d="M202.8,245.4l3.5-8,.5-1.4h.4l.5,1.4,3.5,8h-8.3ZM210.7,234.1h-7.1l-8.1,17.8h4.5l1.4-3.2h11.3l1.4,3.2h4.8l-8.1-17.8h0Z"/>
        </g>
        <g id="am">
          <path id="an" d="M57.7,266.9c0,.8-.3,1.4-.8,1.9-.6.4-1.4.6-2.4.6h-2.9v-5.2h2.9c1,0,1.8.2,2.4.6.6.4.8,1.1.8,1.9v.2ZM54.8,262.3h-5.4v9.1h5.4c1.7,0,3-.4,3.9-1.2.9-.8,1.4-1.9,1.4-3.3v-.2c0-1.4-.5-2.5-1.4-3.3-.9-.8-2.2-1.2-3.9-1.2"/>
        </g>
        <g id="ao">
          <path id="ap" d="M66.7,269.4v-1.8h6.6v-1.9h-6.6v-1.6h7.5v-2h-9.8v9.1h9.9v-1.9h-7.6,0Z"/>
        </g>
        <g id="aq">
          <path id="ar" d="M88.7,267.7h6.6v-1.9h-6.6v-1.6h7.5v-2h-9.8v9.1h9.9v-1.9h-7.6v-1.8h0Z"/>
        </g>
        <g id="as">
          <path id="at" d="M106.5,266l-2-.3c-1.1-.2-1.7-.5-1.7-1h0c0-.4.2-.6.5-.7.4-.1.9-.2,1.7-.2h.2c.7,0,1.3,0,2,.3.7.2,1.2.5,1.7.8l1-1.6c-.7-.5-1.4-.8-2.2-1-.7-.2-1.6-.3-2.7-.3h-.2c-1.4,0-2.5.2-3.3.7-.8.5-1.1,1.1-1.1,2h0c0,.8.3,1.4.9,1.9.6.4,1.5.8,2.7.9l2,.3c.7,0,1.2.2,1.6.4.3.2.5.4.5.6h0c0,.4-.2.6-.6.8-.4.1-1,.2-1.8.2h-.2c-.8,0-1.6-.1-2.4-.3-.8-.2-1.5-.5-2.1-.9l-.9,1.7c.8.4,1.6.8,2.5,1s1.8.3,2.9.3h.2c1.6,0,2.7-.2,3.5-.7.8-.4,1.1-1.1,1.1-2.1h0c0-.9-.3-1.5-.9-1.9-.6-.5-1.6-.8-2.9-1"/>
        </g>
        <g id="au">
          <path id="av" d="M122,265.5c0,.4-.1.6-.4.8-.3.2-.7.3-1.3.3h-3.2v-2.3h3.3c.6,0,1,0,1.2.2.2.2.4.4.4.8v.2h0ZM120.7,262.3h-5.9v9.1h2.3v-2.9h3.6c1.2,0,2.1-.2,2.7-.7s.9-1.3.9-2.3h0c0-1.2-.3-1.9-.9-2.4s-1.5-.7-2.7-.7"/>
        </g>
        <g id="aw">
          <path id="ax" d="M130.4,268l1.8-4.1.2-.7h.2l.2.7,1.8,4.1h-4.3ZM130.8,262.3l-4.2,9.1h2.3l.7-1.6h5.8l.7,1.6h2.5l-4.2-9.1h-3.6Z"/>
        </g>
        <g id="ay">
          <path id="az" d="M151.3,270.4h0l-.6-1.3-3.7-6.9h-4.3v9.1h2.3v-8.2h.1l.6,1.3,3.7,6.9h4.3v-9.1h-2.3v8.2h0ZM146.1,261.1l-1.2-.4c.2-.6.5-1.1.8-1.4.3-.3.7-.4,1.3-.4s.7,0,1,.2c.3.1.6.3.9.4.3.1.5.2.6.2.2,0,.4,0,.5-.2.1-.1.2-.3.3-.6l1.2.2c-.2.7-.5,1.2-.8,1.5-.3.3-.7.4-1.2.4s-.7,0-1-.2c-.3-.1-.6-.3-.9-.4-.3-.1-.5-.2-.6-.2s-.3,0-.5.2c-.1.1-.2.3-.4.7"/>
        </g>
        <g id="ba">
          <path id="bb" d="M161.3,268l1.8-4.1.2-.7h.2l.2.7,1.8,4.1h-4.3ZM165.3,262.3h-3.6l-4.2,9.1h2.3l.7-1.6h5.8l.7,1.6h2.5l-4.2-9.1h0Z"/>
        </g>
      </g>
    </g>
  </g>
</svg>