<?xml version="1.0" encoding="UTF-8" standalone="no"?>
<svg
    xmlns:dc="http://purl.org/dc/elements/1.1/"
    xmlns:cc="http://creativecommons.org/ns#"
    xmlns:rdf="http://www.w3.org/1999/02/22-rdf-syntax-ns#"
    xmlns:svg="http://www.w3.org/2000/svg"
    xmlns="http://www.w3.org/2000/svg"
    xmlns:sodipodi="http://sodipodi.sourceforge.net/DTD/sodipodi-0.dtd"
    xmlns:inkscape="http://www.inkscape.org/namespaces/inkscape"
    inkscape:version="1.0 (4035a4fb49, 2020-05-01)"
    height="190.01645"
    width="684.79547"
    sodipodi:docname="WTA Tour 2.svg"
    id="svg5678"
    version="1.1"
    viewBox="0 0 684.79546 190.01645">
   <defs
       id="defs5682" />
   <sodipodi:namedview
       inkscape:current-layer="svg5678"
       inkscape:window-maximized="1"
       inkscape:window-y="-9"
       inkscape:window-x="-9"
       inkscape:cy="94.989933"
       inkscape:cx="342.38547"
       inkscape:zoom="1.7500963"
       fit-margin-bottom="5"
       fit-margin-right="5"
       fit-margin-left="5"
       fit-margin-top="5"
       lock-margins="true"
       showgrid="false"
       id="namedview5680"
       inkscape:window-height="1001"
       inkscape:window-width="1920"
       inkscape:pageshadow="2"
       inkscape:pageopacity="0"
       guidetolerance="10"
       gridtolerance="10"
       objecttolerance="10"
       borderopacity="1"
       bordercolor="#666666"
       pagecolor="#ffffff" />
   <path
       id="path5672"
       d="m 481.72547,66.569933 h -51.11 c -2,0 -3.34,1.14 -3.34,3 0,1.86 1.24,3 3.34,3 h 22.17 v 57.689997 a 3.29,3.29 0 1 0 6.57,0 V 72.559933 h 22.37 c 2.09,0 3.42,-1.14 3.42,-3 0,-1.86 -1.33,-3 -3.42,-3 m 36,67.859997 c 19.79,0 32.83,-13.7 32.83,-34.549997 0,-20.18 -13.61,-34.55 -32.83,-34.55 -19.22,0 -32.84,14.28 -32.84,34.55 0,20.849997 13,34.549997 32.84,34.549997 m 0.09,-5.9 c -15.89,0 -26.36,-11.42 -26.36,-28.649997 0,-16.75 10.94,-28.65 26.36,-28.65 15.42,0 26.27,11.9 26.27,28.65 0,17.229997 -10.37,28.649997 -26.27,28.649997 m 70,5.9 c 16.84,0 27.69,-10.37 27.69,-26.46 V 69.519933 a 3.22,3.22 0 0 0 -3.33,-3.43 3.1,3.1 0 0 0 -3.23,3.43 v 37.789997 c 0,12.85 -7.62,21.13 -21.13,21.13 -13.51,0 -21.13,-8.38 -21.13,-21.23 V 69.519933 a 3.29,3.29 0 1 0 -6.57,0 v 38.469997 c 0,16 10.85,26.46 27.7,26.46 m 90.7,-6.57 -21.41,-22.46 h 3.23 c 11.14,0 18.85,-7.899997 18.85,-19.509997 0,-11.42 -7.71,-19.32 -18.85,-19.32 h -31.28 a 3.3,3.3 0 0 0 -3.61,3.4 v 60.249997 a 3.29,3.29 0 1 0 6.57,0 v -24.84 h 16.65 l 25.13,26.94 a 3.68,3.68 0 0 0 2.86,1.33 3.08,3.08 0 0 0 3.14,-3 3.81,3.81 0 0 0 -1.34,-2.86 m -46.48,-55.339997 h 27.6 c 8,0 12.94,5.14 12.94,13.42 0,8.47 -4.85,13.61 -12.94,13.61 h -27.6 z m -237.22,44.519997 a 7.9,7.9 0 0 0 -8.26,7.88 8.07,8.07 0 0 0 8,8.24 8.22,8.22 0 0 0 8.16,-8.15 8,8 0 0 0 -7.9,-7.97 z"
       fill="#7814ff" />
   <path
       id="path5674"
       d="m 425.86547,120.52993 q -11.82,-24.319997 -23.54,-48.689997 c -1.57,-3.25 -4.05,-5.27 -7.69,-5.27 -3.64,0 -6.25,2.07 -7.87,5.45 q -11.6,24.1 -23.28,48.169997 a 15.78,15.78 0 0 0 -1.05,2.69 8.13,8.13 0 0 0 14.16,7.19 15.52,15.52 0 0 0 1.76,-3 q 7.38,-15.17 14.72,-30.339997 c 0.41,-0.85 0.86,-1.68 1.53,-3 0.55,1.07 0.83,1.58 1.08,2.1 q 6.07,12.559997 12.16,25.119997 c 1.31,2.7 2.55,5.45 4,8.07 a 8.12,8.12 0 0 0 14.7,-1.48 8.91,8.91 0 0 0 -0.68,-7.01 z m -51.79,-45.239997 a 8.14,8.14 0 0 0 -5.1,-8.07 11.29,11.29 0 0 0 -4,-0.67 c -14.06,-0.05 -43.64,0 -43.64,0 a 8.14,8.14 0 0 0 -7.16,7.6 8,8 0 0 0 4.29,7.75 7.81,7.81 0 0 0 3.5,0.77 h 11.31 c 0,0 -18.85,38.399997 -19.26,39.579997 a 8,8 0 0 0 2.47,8.93 8.16,8.16 0 0 0 9,1 9.52,9.52 0 0 0 4.12,-4.73 q 6,-12.57 12.15,-25.13 c 2.87,-5.929997 9.28,-19.619997 9.28,-19.619997 0,0 14.15,0.15 16.33,0 3.77,-0.3 6.37,-3.64 6.71,-7.41 z m -78.53,-8.48 c -3,0.75 -4.78,2.7 -6.07,5.39 -5,10.41 -10,20.79 -15.07,31.179997 -0.36,0.74 -0.81,1.44 -1.38,2.43 -0.64,-1.25 -1.14,-2.16 -1.6,-3.1 l -14.58,-30.119997 a 19.56,19.56 0 0 0 -1.22,-2.31 8.16,8.16 0 0 0 -13.72,0 20.28,20.28 0 0 0 -1.22,2.31 q -7.29,15.06 -14.58,30.109997 c -0.44,0.91 -1,1.79 -1.66,3.08 -0.71,-1.36 -1.17,-2.19 -1.59,-3 l -14.46,-29.879997 a 23.29,23.29 0 0 0 -1.36,-2.57 8.16,8.16 0 0 0 -14.15,8.07 c 8,16.72 16.07,33.379997 24.17,49.999997 a 7.81,7.81 0 0 0 7.49,4.64 8,8 0 0 0 7.41,-4.76 c 0.22,-0.44 16.21,-33.329997 16.86,-34.569997 1.7,3.47 12.58,25.999997 16.57,34.149997 1.79,3.68 4.72,5.5 8.31,5.18 3.59,-0.32 5.76,-2.39 7.26,-5.51 q 11.53,-24 23.15,-47.949997 a 16.62,16.62 0 0 0 1.24,-3.25 8.17,8.17 0 0 0 -9.8,-9.52 z m -116.57,31.18 c -0.94,-14.17 -3.28,-22.91 -9.4,-34.66 a 84.07,84.07 0 0 0 -24.73,-28.67 2.85,2.85 0 0 1 -0.38,-0.32 c 0.41,-2.57 1.32,-6.84 3.2,-9.66 2.84,-4.27 7.59,-9.33 7.9,-11.7 0.31,-2.37 -1.11,-4.2900003 -1.42,-5.6900003 -0.53,-2.37 -2.1,-2.66 -3.11,-1.95 a 21.92,21.92 0 0 0 -3.37,3.59 c -1.16,1.4000003 -2.21,2.5500003 -2.81,3.1900003 a 9.18,9.18 0 0 0 0,-1.84 c -0.28,-2.3600003 -1.88,-2.2900003 -2.42,-1.5400003 -0.28,0.37 0.16,2.5800003 -1.28,4.8200003 -1.22,1.91 -1.16,3.86 -1,6 a 18.27,18.27 0 0 1 -1.4,8.42 c -0.27,0.66 -0.57,1.36 -0.89,2.09 0,0 -6.66,14.81 -7.72,21.41 -0.4,3.25 0.12,4.93 -0.36,6.49 -1,3.15 -7.52,16 -10.91,22.35 -2.5,4.67 -4.87,9.55 -4.28,15.06 a 9.92,9.92 0 0 1 0.05,1.49 3.15,3.15 0 0 1 -3.23,3 c -3.41,-0.11 -4.68,-4.29 -3.83,-7.79 0.53,-2.21 2,-4.13 0.72,-5.81 -1.28,-1.68 -3.75,-0.92 -6.86,-0.08 -3.360005,0.92 -6.450005,1.71 -9.380005,-0.86 -2.93,-2.57 -5.32,-5.16 -14.38,-2.58 -1.48,0.42 -0.45,-5.74 3.7,-7.15 a 7.06,7.06 0 0 0 -2.17,-0.18 15.27,15.27 0 0 0 -8.75,3.83 14.27,14.27 0 0 0 -4.62,9 19.17,19.17 0 0 0 3,13.399997 c -3.12,1.54 -4.33,3.42 -6,5.9 -0.95,1.38 -2.61,3.68 -5.69,3.68 1,2 4,1 5.51,1.44 a 10.72,10.72 0 0 0 -3.5,11.7 22.74,22.74 0 0 1 9.11,-7.38 c 1.11,-0.4 4,-1.6 5.16,-2 4,-1.47 5.33,-3.33 6.22,-7.8 a 27,27 0 0 0 8.2,0.09 c 2.12,-0.29 3.06,1.46 5.62,2.71 -1.12,0.59 -6.8,2.88 -10.08,4.7 -5.59,3.09 -11.87,8.5 -14,14.87 -0.54,1.58 -5.52,6.45 -6.65,7.66 a 144.16,144.16 0 0 0 -9.33,11.38 l -0.12,-0.08 c -3.09,-3.24 -21.84,-15.51 -29.46,-23.25 -0.08,-0.07 -1.58,-1.6 -1.84,-1.92 a 4.8,4.8 0 0 1 -0.52,-2.94 v -1.43 c 0,-2 -0.82,-4.69 -2.09,-5.53 -0.77,-0.52 -1.27,-0.82 -1.54,-1 l 8.36,-11.86 c 3.06,-4.439997 10.8,-8.149997 16.61,-9.999997 1.07,-0.34 9.41,-2.27 14.47,-5.79 9.93,-6.9 18.51,-19.66 27.14,-26.2 a 51.25,51.25 0 0 1 42.700005,-8.81 c 0.58,-4.1 3.89,-11.19 4.47,-12.43 1.18,-2.53 3.29,-6.57 4.3,-8.47 a 78.76,78.76 0 0 0 -31.13,-9.68 c -31.330005,-2.8 -59.880005,11.35 -74.380005,32.78 -4.52,6.68 -5.87,14.29 -5.78,22.2 0.36,4.37 0.31,18 -3.11,23.2 -1.25,1.91 -5.64,8.229997 -8.5,12.329997 a 4.89,4.89 0 0 0 -1.14,-0.29 c -2.2199999,-0.31 -3.3499999,0.37 -4.6899999,2.64 l -1.7,3.7 a 10.19,10.19 0 0 0 -0.43,1 4.12,4.12 0 0 0 0.78,3 10.09,10.09 0 0 0 4.16,3.87 2.26,2.26 0 0 0 1.5999999,0.25 c 1.23,1.93 2.26,2.1 3.4,3.1 a 28.9,28.9 0 0 1 4.56,5.29 c 4.63,5.93 9.93,13.93 18.78,22.89 3.36,3.4 9.47,8 11,9.65 a 4.58,4.58 0 0 0 0.47,0.43 3.71,3.71 0 0 0 2.77,1 6.39,6.39 0 0 0 3.19,-1.1 c 16.08,-10 25.58,-25.81 25.72,-26 -0.72,-0.18 -2.68,-1.34 -3,-1.37 l 0.21,-0.09 a 8.76,8.76 0 0 1 2.67,-0.09 h 0.14 c 5.77,0.33 13.83,3.06 16,4 a 8.16,8.16 0 0 1 3.200005,2.67 86.6,86.6 0 0 1 4.67,7.68 6.63,6.63 0 0 1 0.46,5.27 c -0.64,1.95 -8.450005,17.79 -10.770005,24.53 a 18.56,18.56 0 0 1 -1.31,3.24 h 0.11 a 85.57,85.57 0 0 0 21.000005,-2.08 76,76 0 0 0 24.35,-10 c 15.82,-9.81 23.4,-20.21 29.93,-31.53 7.47,-12.94 9.23,-27.88 9.44,-30.29 a 80.55,80.55 0 0 0 0.41,-13.099997 z m -145.550005,-45.68 c 8.11,-11.53 20.55,-14.47 29.09,-8.46 8.54,6.01 10,18.71 1.89,30.24 -8.11,11.53 -21.61,16 -30.17,10 a 14.73,14.73 0 0 1 -4.87,-5.88 c -3.33,-7.1 -2.02,-17.22 4.06,-25.9 z m -5.75,29.3 a 16.11,16.11 0 0 0 10.51,7.64 38.08,38.08 0 0 0 -12.28,6.53 57.55,57.55 0 0 0 1.77,-14.17 z M 162.43547,126.31993 c -0.88,3.24 -1.6,5.17 -1.6,5.17 -3,8.77 -7,19.61 -16.91,29.52 -6.27,-9.44 2.11,-28.52 -5.94,-42.31 -5.65,-9.69 -14.41,-15.32 -29.54,-12.09 -6.73,0.7 -7.51,-0.76 -8.660005,-1.74 -3.46,-3.7 -6.06,-5.319997 -7.8,-5.999997 0.76,-0.24 1.48,-0.49 2.16,-0.76 a 22.27,22.27 0 0 1 7.380005,-1.48 2.78,2.78 0 0 1 2.09,0.84 c 0.18,0.23 0.38,0.46 0.58,0.69 a 5.91,5.91 0 0 0 1.44,1.33 8.75,8.75 0 0 0 5.95,1.859997 c 4.33,-0.22 6.88,-1 12.28,0.43 a 19.29,19.29 0 0 1 10.43,7.21 c 0.08,-0.31 -3.86,-8.62 -2.58,-16.939997 1.29,-5.77 2.69,-11.52 4.34,-17.19 1.23,-4.23 1.6,-8.57 2.29,-12.88 0.11,-0.68 0.9,-2.44 1.53,-4.16 0.36,-1 0.57,-1.87 0.83,-2.82 a 51.92,51.92 0 0 1 6.58,4.34 44.45,44.45 0 0 1 8.32,8.49 48.83,48.83 0 0 1 7.37,14.88 0.76,0.76 0 0 1 0,0.11 c 0.06,0.21 0.12,0.42 0.19,0.63 a 63,63 0 0 1 2.2,12.05 c 0.09,0.8 0.16,1.6 0.21,2.39 a 1.15,1.15 0 0 0 0,0.17 c 0.83,11.429997 -1.48,22.159997 -3.14,28.259997 z"
       fill="#7814ff" />
   <path
       id="path5676"
       d="m 98.035465,77.459933 a 7.57,7.57 0 0 1 -6.51,0.79 15.63,15.63 0 0 0 8.770005,3 0.86,0.86 0 0 0 0.83,-0.87 2.56,2.56 0 0 0 -0.12,-0.7 c -0.93,-3.03 -2.120005,-2.94 -2.970005,-2.22 z"
       fill="#7814ff" />
</svg>
