<?xml version="1.0" encoding="UTF-8"?>
<svg viewBox="0 0 882 393.47" xmlns="http://www.w3.org/2000/svg">
<defs>
<style>.cls-1{fill:#f03919;}</style>
</defs>
<g data-name="Capa 2">
<path d="M71.85,197.51c3.81-29.12,20.94-45.09,44.26-45.09,22.84,0,39,16.44,41.4,45.09ZM222.22,303.64V258.56c-28.55,19.72-56.62,29.12-83.75,29.12-41.4,0-67.09-21.14-67.09-55.89v-.94H227.46V228.5c0-77-43.31-122.57-111.83-122.57C45.68,105.93,0,149.6,0,216.29c0,71.39,44.25,116,121.34,116,38.07,0,70.9-9.39,100.88-28.65Z"/>
<path d="M261.21,154.17v80c0,67.6,19.22,98.24,80.85,98.24a201.24,201.24,0,0,0,69-12.64l-.49-53C394.81,274.09,380.51,278,367.2,278c-29.09,0-34.51-12.16-34.51-43.29V154.17h77.89V105.93H332.69V36.74H321.84L228.67,140v14.19Z"/>
<path d="M528.12,114.2q30.75-16.56,77.09-.21,23.06,8,41.85,37.21,18.38,29.25,18.37,66.45,0,46.68-20.07,71-20.5,24.94-39.51,34a94.24,94.24,0,0,1-41,9.46q-20.72,0-36.51-7.52t-23.49-20.22l-.43.21q0,10.75-9.61,19.15-9.82,8.38-24.56,8.38t-24.34-9.67q-9.6-9.69-9.61-24.74V34.41q0-15,9.61-24.73T470.47,0q14.94,0,24.34,9.68,9.62,9.67,9.61,24.73v98.51q7.91-10.11,23.7-18.72Zm-23.7,83.24v41.72q0,31.62,17.72,39.15,17.94,7.51,24.77,7.52,15.81,0,31.39-13.55,15.81-13.54,15.81-52.47,0-29-10.89-48.61-11.33-19.78-34.81-19.79-17.73,0-31,13.55a45.67,45.67,0,0,0-13,32.48Z"/>
<path class="cls-1" d="M722.76,69.63,701.29,381l152.08,12.52L882,30.27Z"/>
</g>
</svg>
