<svg data-name="Capa 2" viewBox="0 0 2600.1 278.63" xmlns="http://www.w3.org/2000/svg"><defs><style>.cls-1,.cls-2{fill:#010101;stroke-width:0}.cls-2{fill:#f41e1e}</style></defs><g data-name="Layer 1"><path class="cls-2" d="M154.05.7C547.66.55 941.28.68 1334.9.64c14.08-.26 28.2.62 42.24-.64-51.66 92.8-103.18 185.67-154.71 278.54l-.05.09c-5.11-.92-10.3-.52-15.44-.59-402.31-.03-804.63.06-1206.94-.04.72-.68 1.36-1.42 1.93-2.23l.8.26c-.15-.53-.46-1.6-.62-2.14l1.46.02c-.08-.47-.26-1.41-.35-1.87l.85-.23c1.54-3.2 3.22-6.32 5.04-9.35 1.65-3.02 3.25-6.06 5-9.01 1.65-3.02 3.26-6.05 5.01-9 1.64-3.01 3.25-6.05 4.99-9 1.64-3.01 3.27-6.03 4.98-9 1.64-3.01 3.28-6.03 4.99-9 .27-.49.8-1.45 1.06-1.93 1.29-2.38 2.6-4.74 3.96-7.07 1.63-3.02 3.27-6.03 5-9 1.62-3.02 3.27-6.03 4.99-8.99 1.64-3.02 3.27-6.04 5-9 1.63-3.03 3.28-6.04 5-9.01 1.64-3.01 3.28-6.03 5-9 1.63-3.02 3.28-6.03 5-8.99 1.63-3.02 3.28-6.04 5-9 1.64-3.02 3.28-6.04 5-9.01 1.63-3.01 3.28-6.02 4.99-8.99.26-.48.79-1.45 1.05-1.93 1.3-2.37 2.6-4.74 3.97-7.07 1.63-3.02 3.27-6.04 5-9.01 1.63-3.02 3.26-6.04 5-8.99 1.64-3.08 3.24-6.19 5.2-9.08.04-.23.12-.69.16-.91 1.58-2.72 3.15-5.45 4.84-8.11.04-.22.12-.66.15-.89 1.58-2.72 3.16-5.44 4.85-8.1l.16-.9c1.58-2.72 3.15-5.45 4.84-8.1l.16-.9c1.57-2.72 3.15-5.44 4.83-8.1.05-.23.13-.68.17-.91 1.58-2.71 3.15-5.44 4.84-8.09l.16-.9c1.58-2.72 3.15-5.45 4.84-8.1l.16-.9c1.57-2.72 3.15-5.45 4.84-8.1l.16-.9c1.57-2.72 3.15-5.45 4.84-8.11l.16-.88c1.57-2.73 3.15-5.46 4.85-8.12.03-.22.1-.66.14-.89 1.61-2.72 3.11-5.54 5.02-8.07l-.42-.7Zm29.52 67.28c-15.81 17.25-25.64 39.89-27.3 63.25-1.57 21.31 2.45 43.6 14.3 61.67 12.33 19.28 32.33 32.4 53.44 40.35 20.4 7.69 42.19 11.49 63.95 12.09 63.26-.05 126.52.11 189.78-.08 10.81-19.49 21.81-38.86 32.68-58.32 6.32-10.93 12.11-22.17 18.7-32.94 1.13 6.64 2.14 13.34 4.42 19.71 4.98 15.82 14.75 29.98 27.43 40.62 13.63 11.42 30.04 19.17 47.05 24.08 16.2 4.55 33.02 7.33 49.89 6.93h139.06c24.62.89 49.52-6.78 69.01-21.91 15.59-11.94 27.65-28.27 34.69-46.59 6.64 17.64 17.44 33.69 31.3 46.46 10.73 9.75 23.54 17.74 37.89 20.71 8.58 1.89 17.41 1.21 26.13 1.33 60.85-.07 121.7.14 182.55-.1 12.72-23.19 25.94-46.1 38.65-69.29-59.36-.05-118.71.03-178.06-.04 26.66-47.49 53.14-95.08 79.93-142.5-55.26-.1-110.53-.13-165.79.01-15.23 27.82-30.95 55.37-46.22 83.17-.39.83-.99 1.41-1.82 1.73-5.06-27.05-22.37-51.14-45.57-65.7-17.23-11-37.36-17.03-57.66-18.73-8.32-.82-16.68-.49-25.03-.55H647.95c-10.04.06-20.15-.42-30.09 1.26-13.18 1.98-25.91 6.59-37.43 13.28-23.87 13.81-41.51 37.41-48.68 63.97-27.92.21-55.85 0-83.78.1-15.71.55-31.44-.15-47.14.39-16.38 29.53-33.06 58.9-49.49 88.41-14.97-.06-29.93-.02-44.9-.01 22.38-39.38 44.31-79.01 66.57-118.45 43.38.09 86.76.07 130.14.01 9.04-16.35 18.2-32.62 27.41-48.87-89.55-.21-179.11-.02-268.67-.09-29.44-.15-58.64 12.75-78.32 34.64Zm1343.5-42.41c37.96.04 75.92 0 113.88.03 12.72.35 25.85 2.93 36.59 10.09 7.41 4.84 13.05 12.49 15.06 21.16 2.3 9.51.63 19.48-2.41 28.62-10.12 29.2-32.85 52.48-58.97 68.17-23.56 14-50.58 23.47-78.25 22.96-25.56-.02-51.11-.01-76.67 0-14.16 26.18-28.37 52.32-42.53 78.5-10.35-.02-20.7 0-31.05-.01 41.35-76.56 82.89-153.01 124.35-229.52ZM1490 151.34c26 .01 52-.03 78 .02 7.77.22 15.48-1.25 22.91-3.43 16.66-5.07 32.29-13.72 45.22-25.41 11.1-10.09 20.11-23.13 23.17-37.99 1.7-7.92.12-16.9-5.64-22.86-6.59-6.88-16.47-9.44-25.73-9.59-28.04.02-56.08.01-84.12.01-17.95 33.08-35.87 66.17-53.81 99.25Zm398.43 103.74c78.08-76.88 156.52-153.41 234.65-230.25 8.47.02 16.95-.01 25.44.02-5.57 76.74-11.19 153.48-16.71 230.22-10.9.04-21.8.04-32.69 0 1.52-18.24 3-36.48 4.44-54.73h-127.73c-18.48 18.18-36.89 36.44-55.25 54.75-10.72-.01-21.44.02-32.15-.01Zm193.45-159.83c-27.1 26.94-54.28 53.78-81.44 80.65 34.99.02 69.99.03 104.98 0 2.71-37.47 5.89-74.9 8.67-112.37-10.98 10.33-21.26 21.37-32.21 31.72Zm145.43-69.59c11.65-.16 23.32-.04 34.98-.07 5.31 38.51 10.68 77.01 16.01 115.52 46.63-38.5 93.29-76.97 139.9-115.5 11.17-.04 22.34-.04 33.52 0-53.94 44.24-108.05 88.27-162.04 132.46-4.15 3.83-9.41 6.61-12.69 11.28-15.47 28.57-31.01 57.12-46.44 85.73-10.7 0-21.4.03-32.09-.02 16.11-29.89 32.38-59.71 48.51-89.59-6.61-46.6-13.02-93.23-19.66-139.82Zm-578.85 229.41c41.32-76.47 82.79-152.85 124.23-229.25 10.34.05 20.69 0 31.04.03-36.72 67.85-73.51 135.67-110.28 203.49 55.13.01 110.26-.01 165.4.01-4.65 8.59-9.27 17.19-13.97 25.75-65.47-.03-130.95.03-196.42-.03Z"/><path class="cls-2" d="M726.47 75.77c14.98-.05 29.96-.02 44.94-.02-23.47 41.62-46.83 83.3-70.22 124.96-14.98.02-29.95.01-44.93.02 23.49-41.61 46.81-83.31 70.21-124.96Z"/><path class="cls-1" d="M1377.14 0c216.27.2 432.54.03 648.81.09 191.4.02 382.79-.05 574.19.04-51.44 92.84-103.12 185.55-154.52 278.41-193.23.12-386.45.02-579.68.05-214.5-.03-429.01.07-643.51-.05C1273.96 185.67 1325.48 92.8 1377.14 0Zm149.93 25.57c-41.46 76.51-83 152.96-124.35 229.52 10.35.01 20.7-.01 31.05.01 14.16-26.18 28.37-52.32 42.53-78.5 25.56-.01 51.11-.02 76.67 0 27.67.51 54.69-8.96 78.25-22.96 26.12-15.69 48.85-38.97 58.97-68.17 3.04-9.14 4.71-19.11 2.41-28.62-2.01-8.67-7.65-16.32-15.06-21.16-10.74-7.16-23.87-9.74-36.59-10.09-37.96-.04-75.92.01-113.88-.03Zm361.36 229.51c10.71.03 21.43 0 32.15.01 18.36-18.31 36.77-36.57 55.25-54.75h127.73c-1.44 18.25-2.92 36.49-4.44 54.73 10.89.04 21.79.04 32.69 0 5.52-76.74 11.14-153.48 16.71-230.22-8.49-.03-16.97 0-25.44-.02-78.13 76.84-156.57 153.37-234.65 230.25Zm338.88-229.42c6.64 46.59 13.05 93.22 19.66 139.82-16.13 29.88-32.4 59.7-48.51 89.59 10.69.05 21.39.02 32.09.02 15.43-28.61 30.97-57.16 46.44-85.73 3.28-4.67 8.54-7.45 12.69-11.28 53.99-44.19 108.1-88.22 162.04-132.46-11.18-.05-22.35-.05-33.52 0-46.61 38.53-93.27 77-139.9 115.5-5.33-38.51-10.7-77.01-16.01-115.52-11.66.03-23.33-.09-34.98.07Zm-578.85 229.41c65.47.06 130.95 0 196.42.03 4.7-8.56 9.32-17.16 13.97-25.75-55.14-.02-110.27 0-165.4-.01 36.77-67.82 73.56-135.64 110.28-203.49-10.35-.04-20.7.02-31.04-.03-41.44 76.4-82.91 152.78-124.23 229.25Z"/><path class="cls-1" d="M1490 151.34c17.94-33.08 35.86-66.17 53.81-99.25 28.04 0 56.08.01 84.12-.01 9.26.15 19.14 2.71 25.73 9.59 5.76 5.96 7.34 14.94 5.64 22.86-3.06 14.86-12.07 27.9-23.17 37.99-12.93 11.69-28.56 20.34-45.22 25.41-7.43 2.18-15.14 3.65-22.91 3.43-26-.05-52-.01-78-.02Zm591.88-56.09c10.95-10.35 21.23-21.39 32.21-31.72-2.78 37.47-5.96 74.9-8.67 112.37-34.99.03-69.99.02-104.98 0 27.16-26.87 54.34-53.71 81.44-80.65Z"/><path d="M183.57 67.98c19.68-21.89 48.88-34.79 78.32-34.64 89.56.07 179.12-.12 268.67.09-9.21 16.25-18.37 32.52-27.41 48.87-43.38.06-86.76.08-130.14-.01-22.26 39.44-44.19 79.07-66.57 118.45 14.97 0 29.93-.05 44.9.01 16.43-29.51 33.11-58.88 49.49-88.41 15.7-.54 31.43.16 47.14-.39 27.93-.1 55.86.11 83.78-.1 7.17-26.56 24.81-50.16 48.68-63.97 11.52-6.69 24.25-11.3 37.43-13.28 9.94-1.68 20.05-1.2 30.09-1.26h129.02c8.35.06 16.71-.27 25.03.55 20.3 1.7 40.43 7.73 57.66 18.73 23.2 14.56 40.51 38.65 45.57 65.7.83-.32 1.43-.9 1.82-1.73 15.27-27.8 30.99-55.35 46.22-83.17 55.26-.14 110.53-.11 165.79-.01-26.79 47.42-53.27 95.01-79.93 142.5 59.35.07 118.7 0 178.06.04-12.71 23.19-25.93 46.1-38.65 69.29-60.85.24-121.7.03-182.55.1-8.72-.12-17.55.56-26.13-1.33-14.35-2.97-27.16-10.96-37.89-20.71-13.86-12.77-24.66-28.82-31.3-46.46-7.04 18.32-19.1 34.65-34.69 46.59-19.49 15.13-44.39 22.8-69.01 21.91H657.91c-16.87.4-33.69-2.38-49.89-6.93-17.01-4.91-33.42-12.66-47.05-24.08-12.68-10.64-22.45-24.8-27.43-40.62-2.28-6.37-3.29-13.07-4.42-19.71-6.59 10.77-12.38 22.01-18.7 32.94-10.87 19.46-21.87 38.83-32.68 58.32-63.26.19-126.52.03-189.78.08-21.76-.6-43.55-4.4-63.95-12.09-21.11-7.95-41.11-21.07-53.44-40.35-11.85-18.07-15.87-40.36-14.3-61.67 1.66-23.36 11.49-46 27.3-63.25Zm542.9 7.79c-23.4 41.65-46.72 83.35-70.21 124.96 14.98-.01 29.95 0 44.93-.02 23.39-41.66 46.75-83.34 70.22-124.96-14.98 0-29.96-.03-44.94.02Z" style="fill:#fff;stroke-width:0"/></g></svg>