<svg data-name="Capa 2" viewBox="0 0 189.68 160.16" xmlns="http://www.w3.org/2000/svg"><g data-name="Capa 1"><path d="M169.6 79.4c20.09-10.67 18.59-29.28 18.59-33.66C188.19 21.53 162.88 0 133.56 0 116.63 0 97.54 6.5 88.1 20.5c-6.51 9.45-9.69 20.85-10.3 26.39h39.14c.82-3.51 3.47-13.96 17.42-14.16 11.27 0 16.6 7.39 16.6 17.02 0 14.37-14.76 15.39-20.29 15.39h-10.54v28.53h10.54c5.53 0 20.29 1.02 20.29 15.4 0 9.66-5.33 17.02-16.6 17.02-13.95-.19-16.6-10.67-17.42-14.15H77.8c.61 5.53 1.63 17.02 8.4 26.88 9.83 14.57 29.71 21.35 47.33 21.35 30.53 0 56.16-21.13 56.16-47.63 0-4.55 0-22.46-20.09-33.14Z"/><path d="M0 27.19 92.11 79.4l-14.64 8.49L0 43.96zm0 26.95 68.34 38.74-14.65 8.49L0 70.91zM0 81.1l44.57 25.36-14.64 8.49L0 97.86zm0 26.94 20.8 11.9L0 131.82z" style="fill:#e4191d"/></g></svg>